<mxfile host="app.diagrams.net" modified="2024-06-03T06:38:44.501Z" agent="Mozilla/5.0 (Windows NT 10.0; Win64; x64) AppleWebKit/537.36 (KHTML, like Gecko) Chrome/125.0.0.0 Safari/537.36 Edg/125.0.0.0" etag="yEMhpPrCT5WpfoxD-Xp2" version="24.4.13" type="github" pages="4">
  <diagram name="第 1 页" id="qbhL4TjPJ0k_jzAD57X2">
    <mxGraphModel dx="731" dy="661" grid="0" gridSize="10" guides="1" tooltips="1" connect="1" arrows="1" fold="1" page="0" pageScale="1" pageWidth="2339" pageHeight="3300" math="1" shadow="0">
      <root>
        <mxCell id="0" />
        <mxCell id="1" parent="0" />
        <mxCell id="WQWKy0i_2Ee1M4cCrUGG-1" value="" style="shape=table;startSize=0;container=1;collapsible=0;childLayout=tableLayout;fontSize=20;" vertex="1" parent="1">
          <mxGeometry x="841" y="179" width="360" height="176" as="geometry" />
        </mxCell>
        <mxCell id="WQWKy0i_2Ee1M4cCrUGG-2" value="" style="shape=tableRow;horizontal=0;startSize=0;swimlaneHead=0;swimlaneBody=0;strokeColor=inherit;top=0;left=0;bottom=0;right=0;collapsible=0;dropTarget=0;fillColor=none;points=[[0,0.5],[1,0.5]];portConstraint=eastwest;fontSize=20;" vertex="1" parent="WQWKy0i_2Ee1M4cCrUGG-1">
          <mxGeometry width="360" height="44" as="geometry" />
        </mxCell>
        <mxCell id="WQWKy0i_2Ee1M4cCrUGG-3" value="1" style="shape=partialRectangle;html=1;whiteSpace=wrap;connectable=0;strokeColor=inherit;overflow=hidden;fillColor=none;top=0;left=0;bottom=0;right=0;pointerEvents=1;fontSize=20;" vertex="1" parent="WQWKy0i_2Ee1M4cCrUGG-2">
          <mxGeometry width="60" height="44" as="geometry">
            <mxRectangle width="60" height="44" as="alternateBounds" />
          </mxGeometry>
        </mxCell>
        <mxCell id="WQWKy0i_2Ee1M4cCrUGG-4" value="1" style="shape=partialRectangle;html=1;whiteSpace=wrap;connectable=0;strokeColor=inherit;overflow=hidden;fillColor=none;top=0;left=0;bottom=0;right=0;pointerEvents=1;fontSize=20;" vertex="1" parent="WQWKy0i_2Ee1M4cCrUGG-2">
          <mxGeometry x="60" width="60" height="44" as="geometry">
            <mxRectangle width="60" height="44" as="alternateBounds" />
          </mxGeometry>
        </mxCell>
        <mxCell id="WQWKy0i_2Ee1M4cCrUGG-5" value="1" style="shape=partialRectangle;html=1;whiteSpace=wrap;connectable=0;strokeColor=inherit;overflow=hidden;fillColor=none;top=0;left=0;bottom=0;right=0;pointerEvents=1;fontSize=20;" vertex="1" parent="WQWKy0i_2Ee1M4cCrUGG-2">
          <mxGeometry x="120" width="60" height="44" as="geometry">
            <mxRectangle width="60" height="44" as="alternateBounds" />
          </mxGeometry>
        </mxCell>
        <mxCell id="WQWKy0i_2Ee1M4cCrUGG-6" value="0" style="shape=partialRectangle;html=1;whiteSpace=wrap;connectable=0;strokeColor=inherit;overflow=hidden;fillColor=none;top=0;left=0;bottom=0;right=0;pointerEvents=1;fontSize=20;" vertex="1" parent="WQWKy0i_2Ee1M4cCrUGG-2">
          <mxGeometry x="180" width="60" height="44" as="geometry">
            <mxRectangle width="60" height="44" as="alternateBounds" />
          </mxGeometry>
        </mxCell>
        <mxCell id="WQWKy0i_2Ee1M4cCrUGG-7" value="0" style="shape=partialRectangle;html=1;whiteSpace=wrap;connectable=0;strokeColor=inherit;overflow=hidden;fillColor=none;top=0;left=0;bottom=0;right=0;pointerEvents=1;fontSize=20;" vertex="1" parent="WQWKy0i_2Ee1M4cCrUGG-2">
          <mxGeometry x="240" width="60" height="44" as="geometry">
            <mxRectangle width="60" height="44" as="alternateBounds" />
          </mxGeometry>
        </mxCell>
        <mxCell id="WQWKy0i_2Ee1M4cCrUGG-8" value="1" style="shape=partialRectangle;html=1;whiteSpace=wrap;connectable=0;strokeColor=inherit;overflow=hidden;fillColor=none;top=0;left=0;bottom=0;right=0;pointerEvents=1;fontSize=20;" vertex="1" parent="WQWKy0i_2Ee1M4cCrUGG-2">
          <mxGeometry x="300" width="60" height="44" as="geometry">
            <mxRectangle width="60" height="44" as="alternateBounds" />
          </mxGeometry>
        </mxCell>
        <mxCell id="WQWKy0i_2Ee1M4cCrUGG-9" value="" style="shape=tableRow;horizontal=0;startSize=0;swimlaneHead=0;swimlaneBody=0;strokeColor=inherit;top=0;left=0;bottom=0;right=0;collapsible=0;dropTarget=0;fillColor=none;points=[[0,0.5],[1,0.5]];portConstraint=eastwest;fontSize=20;" vertex="1" parent="WQWKy0i_2Ee1M4cCrUGG-1">
          <mxGeometry y="44" width="360" height="44" as="geometry" />
        </mxCell>
        <mxCell id="WQWKy0i_2Ee1M4cCrUGG-10" value="0" style="shape=partialRectangle;html=1;whiteSpace=wrap;connectable=0;strokeColor=inherit;overflow=hidden;fillColor=none;top=0;left=0;bottom=0;right=0;pointerEvents=1;fontSize=20;" vertex="1" parent="WQWKy0i_2Ee1M4cCrUGG-9">
          <mxGeometry width="60" height="44" as="geometry">
            <mxRectangle width="60" height="44" as="alternateBounds" />
          </mxGeometry>
        </mxCell>
        <mxCell id="WQWKy0i_2Ee1M4cCrUGG-11" value="1" style="shape=partialRectangle;html=1;whiteSpace=wrap;connectable=0;strokeColor=inherit;overflow=hidden;fillColor=none;top=0;left=0;bottom=0;right=0;pointerEvents=1;fontSize=20;" vertex="1" parent="WQWKy0i_2Ee1M4cCrUGG-9">
          <mxGeometry x="60" width="60" height="44" as="geometry">
            <mxRectangle width="60" height="44" as="alternateBounds" />
          </mxGeometry>
        </mxCell>
        <mxCell id="WQWKy0i_2Ee1M4cCrUGG-12" value="1" style="shape=partialRectangle;html=1;whiteSpace=wrap;connectable=0;strokeColor=inherit;overflow=hidden;fillColor=none;top=0;left=0;bottom=0;right=0;pointerEvents=1;fontSize=20;" vertex="1" parent="WQWKy0i_2Ee1M4cCrUGG-9">
          <mxGeometry x="120" width="60" height="44" as="geometry">
            <mxRectangle width="60" height="44" as="alternateBounds" />
          </mxGeometry>
        </mxCell>
        <mxCell id="WQWKy0i_2Ee1M4cCrUGG-13" value="1" style="shape=partialRectangle;html=1;whiteSpace=wrap;connectable=0;strokeColor=inherit;overflow=hidden;fillColor=none;top=0;left=0;bottom=0;right=0;pointerEvents=1;fontSize=20;" vertex="1" parent="WQWKy0i_2Ee1M4cCrUGG-9">
          <mxGeometry x="180" width="60" height="44" as="geometry">
            <mxRectangle width="60" height="44" as="alternateBounds" />
          </mxGeometry>
        </mxCell>
        <mxCell id="WQWKy0i_2Ee1M4cCrUGG-14" value="1" style="shape=partialRectangle;html=1;whiteSpace=wrap;connectable=0;strokeColor=inherit;overflow=hidden;fillColor=none;top=0;left=0;bottom=0;right=0;pointerEvents=1;fontSize=20;" vertex="1" parent="WQWKy0i_2Ee1M4cCrUGG-9">
          <mxGeometry x="240" width="60" height="44" as="geometry">
            <mxRectangle width="60" height="44" as="alternateBounds" />
          </mxGeometry>
        </mxCell>
        <mxCell id="WQWKy0i_2Ee1M4cCrUGG-15" value="0" style="shape=partialRectangle;html=1;whiteSpace=wrap;connectable=0;strokeColor=inherit;overflow=hidden;fillColor=none;top=0;left=0;bottom=0;right=0;pointerEvents=1;fontSize=20;" vertex="1" parent="WQWKy0i_2Ee1M4cCrUGG-9">
          <mxGeometry x="300" width="60" height="44" as="geometry">
            <mxRectangle width="60" height="44" as="alternateBounds" />
          </mxGeometry>
        </mxCell>
        <mxCell id="WQWKy0i_2Ee1M4cCrUGG-16" value="" style="shape=tableRow;horizontal=0;startSize=0;swimlaneHead=0;swimlaneBody=0;strokeColor=inherit;top=0;left=0;bottom=0;right=0;collapsible=0;dropTarget=0;fillColor=none;points=[[0,0.5],[1,0.5]];portConstraint=eastwest;fontSize=20;" vertex="1" parent="WQWKy0i_2Ee1M4cCrUGG-1">
          <mxGeometry y="88" width="360" height="44" as="geometry" />
        </mxCell>
        <mxCell id="WQWKy0i_2Ee1M4cCrUGG-17" value="0" style="shape=partialRectangle;html=1;whiteSpace=wrap;connectable=0;strokeColor=inherit;overflow=hidden;fillColor=none;top=0;left=0;bottom=0;right=0;pointerEvents=1;fontSize=20;" vertex="1" parent="WQWKy0i_2Ee1M4cCrUGG-16">
          <mxGeometry width="60" height="44" as="geometry">
            <mxRectangle width="60" height="44" as="alternateBounds" />
          </mxGeometry>
        </mxCell>
        <mxCell id="WQWKy0i_2Ee1M4cCrUGG-18" value="0" style="shape=partialRectangle;html=1;whiteSpace=wrap;connectable=0;strokeColor=inherit;overflow=hidden;fillColor=none;top=0;left=0;bottom=0;right=0;pointerEvents=1;fontSize=20;" vertex="1" parent="WQWKy0i_2Ee1M4cCrUGG-16">
          <mxGeometry x="60" width="60" height="44" as="geometry">
            <mxRectangle width="60" height="44" as="alternateBounds" />
          </mxGeometry>
        </mxCell>
        <mxCell id="WQWKy0i_2Ee1M4cCrUGG-19" value="1" style="shape=partialRectangle;html=1;whiteSpace=wrap;connectable=0;strokeColor=inherit;overflow=hidden;fillColor=none;top=0;left=0;bottom=0;right=0;pointerEvents=1;fontSize=20;" vertex="1" parent="WQWKy0i_2Ee1M4cCrUGG-16">
          <mxGeometry x="120" width="60" height="44" as="geometry">
            <mxRectangle width="60" height="44" as="alternateBounds" />
          </mxGeometry>
        </mxCell>
        <mxCell id="WQWKy0i_2Ee1M4cCrUGG-20" value="0" style="shape=partialRectangle;html=1;whiteSpace=wrap;connectable=0;strokeColor=inherit;overflow=hidden;fillColor=none;top=0;left=0;bottom=0;right=0;pointerEvents=1;fontSize=20;" vertex="1" parent="WQWKy0i_2Ee1M4cCrUGG-16">
          <mxGeometry x="180" width="60" height="44" as="geometry">
            <mxRectangle width="60" height="44" as="alternateBounds" />
          </mxGeometry>
        </mxCell>
        <mxCell id="WQWKy0i_2Ee1M4cCrUGG-21" value="1" style="shape=partialRectangle;html=1;whiteSpace=wrap;connectable=0;strokeColor=inherit;overflow=hidden;fillColor=none;top=0;left=0;bottom=0;right=0;pointerEvents=1;fontSize=20;" vertex="1" parent="WQWKy0i_2Ee1M4cCrUGG-16">
          <mxGeometry x="240" width="60" height="44" as="geometry">
            <mxRectangle width="60" height="44" as="alternateBounds" />
          </mxGeometry>
        </mxCell>
        <mxCell id="WQWKy0i_2Ee1M4cCrUGG-22" value="1" style="shape=partialRectangle;html=1;whiteSpace=wrap;connectable=0;strokeColor=inherit;overflow=hidden;fillColor=none;top=0;left=0;bottom=0;right=0;pointerEvents=1;fontSize=20;" vertex="1" parent="WQWKy0i_2Ee1M4cCrUGG-16">
          <mxGeometry x="300" width="60" height="44" as="geometry">
            <mxRectangle width="60" height="44" as="alternateBounds" />
          </mxGeometry>
        </mxCell>
        <mxCell id="WQWKy0i_2Ee1M4cCrUGG-23" style="shape=tableRow;horizontal=0;startSize=0;swimlaneHead=0;swimlaneBody=0;strokeColor=inherit;top=0;left=0;bottom=0;right=0;collapsible=0;dropTarget=0;fillColor=none;points=[[0,0.5],[1,0.5]];portConstraint=eastwest;fontSize=20;" vertex="1" parent="WQWKy0i_2Ee1M4cCrUGG-1">
          <mxGeometry y="132" width="360" height="44" as="geometry" />
        </mxCell>
        <mxCell id="WQWKy0i_2Ee1M4cCrUGG-24" value="0" style="shape=partialRectangle;html=1;whiteSpace=wrap;connectable=0;strokeColor=inherit;overflow=hidden;fillColor=none;top=0;left=0;bottom=0;right=0;pointerEvents=1;fontSize=20;" vertex="1" parent="WQWKy0i_2Ee1M4cCrUGG-23">
          <mxGeometry width="60" height="44" as="geometry">
            <mxRectangle width="60" height="44" as="alternateBounds" />
          </mxGeometry>
        </mxCell>
        <mxCell id="WQWKy0i_2Ee1M4cCrUGG-25" value="0" style="shape=partialRectangle;html=1;whiteSpace=wrap;connectable=0;strokeColor=inherit;overflow=hidden;fillColor=none;top=0;left=0;bottom=0;right=0;pointerEvents=1;fontSize=20;" vertex="1" parent="WQWKy0i_2Ee1M4cCrUGG-23">
          <mxGeometry x="60" width="60" height="44" as="geometry">
            <mxRectangle width="60" height="44" as="alternateBounds" />
          </mxGeometry>
        </mxCell>
        <mxCell id="WQWKy0i_2Ee1M4cCrUGG-26" value="0" style="shape=partialRectangle;html=1;whiteSpace=wrap;connectable=0;strokeColor=inherit;overflow=hidden;fillColor=none;top=0;left=0;bottom=0;right=0;pointerEvents=1;fontSize=20;" vertex="1" parent="WQWKy0i_2Ee1M4cCrUGG-23">
          <mxGeometry x="120" width="60" height="44" as="geometry">
            <mxRectangle width="60" height="44" as="alternateBounds" />
          </mxGeometry>
        </mxCell>
        <mxCell id="WQWKy0i_2Ee1M4cCrUGG-27" value="1" style="shape=partialRectangle;html=1;whiteSpace=wrap;connectable=0;strokeColor=inherit;overflow=hidden;fillColor=none;top=0;left=0;bottom=0;right=0;pointerEvents=1;fontSize=20;" vertex="1" parent="WQWKy0i_2Ee1M4cCrUGG-23">
          <mxGeometry x="180" width="60" height="44" as="geometry">
            <mxRectangle width="60" height="44" as="alternateBounds" />
          </mxGeometry>
        </mxCell>
        <mxCell id="WQWKy0i_2Ee1M4cCrUGG-28" value="0" style="shape=partialRectangle;html=1;whiteSpace=wrap;connectable=0;strokeColor=inherit;overflow=hidden;fillColor=none;top=0;left=0;bottom=0;right=0;pointerEvents=1;fontSize=20;" vertex="1" parent="WQWKy0i_2Ee1M4cCrUGG-23">
          <mxGeometry x="240" width="60" height="44" as="geometry">
            <mxRectangle width="60" height="44" as="alternateBounds" />
          </mxGeometry>
        </mxCell>
        <mxCell id="WQWKy0i_2Ee1M4cCrUGG-29" value="1" style="shape=partialRectangle;html=1;whiteSpace=wrap;connectable=0;strokeColor=inherit;overflow=hidden;fillColor=none;top=0;left=0;bottom=0;right=0;pointerEvents=1;fontSize=20;" vertex="1" parent="WQWKy0i_2Ee1M4cCrUGG-23">
          <mxGeometry x="300" width="60" height="44" as="geometry">
            <mxRectangle width="60" height="44" as="alternateBounds" />
          </mxGeometry>
        </mxCell>
        <mxCell id="WQWKy0i_2Ee1M4cCrUGG-30" value="" style="shape=table;startSize=0;container=1;collapsible=0;childLayout=tableLayout;fontSize=20;" vertex="1" parent="1">
          <mxGeometry x="737" y="179" width="60" height="176" as="geometry" />
        </mxCell>
        <mxCell id="WQWKy0i_2Ee1M4cCrUGG-31" value="" style="shape=tableRow;horizontal=0;startSize=0;swimlaneHead=0;swimlaneBody=0;strokeColor=inherit;top=0;left=0;bottom=0;right=0;collapsible=0;dropTarget=0;fillColor=none;points=[[0,0.5],[1,0.5]];portConstraint=eastwest;fontSize=20;" vertex="1" parent="WQWKy0i_2Ee1M4cCrUGG-30">
          <mxGeometry width="60" height="44" as="geometry" />
        </mxCell>
        <mxCell id="WQWKy0i_2Ee1M4cCrUGG-32" value="`C_1`" style="shape=partialRectangle;html=1;whiteSpace=wrap;connectable=0;strokeColor=inherit;overflow=hidden;fillColor=none;top=0;left=0;bottom=0;right=0;pointerEvents=1;fontSize=20;" vertex="1" parent="WQWKy0i_2Ee1M4cCrUGG-31">
          <mxGeometry width="60" height="44" as="geometry">
            <mxRectangle width="60" height="44" as="alternateBounds" />
          </mxGeometry>
        </mxCell>
        <mxCell id="WQWKy0i_2Ee1M4cCrUGG-33" value="" style="shape=tableRow;horizontal=0;startSize=0;swimlaneHead=0;swimlaneBody=0;strokeColor=inherit;top=0;left=0;bottom=0;right=0;collapsible=0;dropTarget=0;fillColor=none;points=[[0,0.5],[1,0.5]];portConstraint=eastwest;fontSize=20;" vertex="1" parent="WQWKy0i_2Ee1M4cCrUGG-30">
          <mxGeometry y="44" width="60" height="44" as="geometry" />
        </mxCell>
        <mxCell id="WQWKy0i_2Ee1M4cCrUGG-34" value="`C_2`" style="shape=partialRectangle;html=1;whiteSpace=wrap;connectable=0;strokeColor=inherit;overflow=hidden;fillColor=none;top=0;left=0;bottom=0;right=0;pointerEvents=1;fontSize=20;" vertex="1" parent="WQWKy0i_2Ee1M4cCrUGG-33">
          <mxGeometry width="60" height="44" as="geometry">
            <mxRectangle width="60" height="44" as="alternateBounds" />
          </mxGeometry>
        </mxCell>
        <mxCell id="WQWKy0i_2Ee1M4cCrUGG-35" style="shape=tableRow;horizontal=0;startSize=0;swimlaneHead=0;swimlaneBody=0;strokeColor=inherit;top=0;left=0;bottom=0;right=0;collapsible=0;dropTarget=0;fillColor=none;points=[[0,0.5],[1,0.5]];portConstraint=eastwest;fontSize=20;" vertex="1" parent="WQWKy0i_2Ee1M4cCrUGG-30">
          <mxGeometry y="88" width="60" height="44" as="geometry" />
        </mxCell>
        <mxCell id="WQWKy0i_2Ee1M4cCrUGG-36" value="`C_3`" style="shape=partialRectangle;html=1;whiteSpace=wrap;connectable=0;strokeColor=inherit;overflow=hidden;fillColor=none;top=0;left=0;bottom=0;right=0;pointerEvents=1;fontSize=20;" vertex="1" parent="WQWKy0i_2Ee1M4cCrUGG-35">
          <mxGeometry width="60" height="44" as="geometry">
            <mxRectangle width="60" height="44" as="alternateBounds" />
          </mxGeometry>
        </mxCell>
        <mxCell id="WQWKy0i_2Ee1M4cCrUGG-37" style="shape=tableRow;horizontal=0;startSize=0;swimlaneHead=0;swimlaneBody=0;strokeColor=inherit;top=0;left=0;bottom=0;right=0;collapsible=0;dropTarget=0;fillColor=none;points=[[0,0.5],[1,0.5]];portConstraint=eastwest;fontSize=20;" vertex="1" parent="WQWKy0i_2Ee1M4cCrUGG-30">
          <mxGeometry y="132" width="60" height="44" as="geometry" />
        </mxCell>
        <mxCell id="WQWKy0i_2Ee1M4cCrUGG-38" value="`C_4`" style="shape=partialRectangle;html=1;whiteSpace=wrap;connectable=0;strokeColor=inherit;overflow=hidden;fillColor=none;top=0;left=0;bottom=0;right=0;pointerEvents=1;fontSize=20;" vertex="1" parent="WQWKy0i_2Ee1M4cCrUGG-37">
          <mxGeometry width="60" height="44" as="geometry">
            <mxRectangle width="60" height="44" as="alternateBounds" />
          </mxGeometry>
        </mxCell>
        <mxCell id="WQWKy0i_2Ee1M4cCrUGG-39" value="&lt;font style=&quot;font-size: 20px;&quot;&gt;Classes&lt;/font&gt;" style="text;html=1;strokeColor=none;fillColor=none;align=center;verticalAlign=middle;whiteSpace=wrap;rounded=0;rotation=0;fontSize=20;" vertex="1" parent="1">
          <mxGeometry x="665" y="252" width="60" height="30" as="geometry" />
        </mxCell>
        <mxCell id="WQWKy0i_2Ee1M4cCrUGG-40" style="edgeStyle=orthogonalEdgeStyle;rounded=0;orthogonalLoop=1;jettySize=auto;html=1;exitX=1;exitY=0.5;exitDx=0;exitDy=0;entryX=0;entryY=0.5;entryDx=0;entryDy=0;fontSize=20;" edge="1" parent="1" source="WQWKy0i_2Ee1M4cCrUGG-41" target="WQWKy0i_2Ee1M4cCrUGG-42">
          <mxGeometry relative="1" as="geometry" />
        </mxCell>
        <mxCell id="WQWKy0i_2Ee1M4cCrUGG-41" value="&lt;font style=&quot;font-size: 20px;&quot;&gt;`x_i`&lt;/font&gt;" style="rounded=0;whiteSpace=wrap;html=1;fontSize=20;" vertex="1" parent="1">
          <mxGeometry x="744" y="390" width="46" height="42" as="geometry" />
        </mxCell>
        <mxCell id="WQWKy0i_2Ee1M4cCrUGG-42" value="" style="shape=trapezoid;perimeter=trapezoidPerimeter;whiteSpace=wrap;html=1;fixedSize=1;fontSize=20;" vertex="1" parent="1">
          <mxGeometry x="822" y="381" width="399" height="60" as="geometry" />
        </mxCell>
        <mxCell id="WQWKy0i_2Ee1M4cCrUGG-43" value="&lt;font style=&quot;font-size: 20px;&quot;&gt;`e_1`&lt;/font&gt;" style="text;html=1;strokeColor=none;fillColor=none;align=center;verticalAlign=middle;whiteSpace=wrap;rounded=0;fontSize=20;" vertex="1" parent="1">
          <mxGeometry x="855" y="396" width="32" height="30" as="geometry" />
        </mxCell>
        <mxCell id="WQWKy0i_2Ee1M4cCrUGG-44" style="edgeStyle=orthogonalEdgeStyle;rounded=0;orthogonalLoop=1;jettySize=auto;html=1;exitX=0.5;exitY=0;exitDx=0;exitDy=0;entryX=0.25;entryY=1;entryDx=0;entryDy=0;fontSize=20;" edge="1" parent="1" source="WQWKy0i_2Ee1M4cCrUGG-45" target="WQWKy0i_2Ee1M4cCrUGG-1">
          <mxGeometry relative="1" as="geometry" />
        </mxCell>
        <mxCell id="WQWKy0i_2Ee1M4cCrUGG-45" value="&lt;font style=&quot;font-size: 20px;&quot;&gt;`e_2`&lt;/font&gt;" style="text;html=1;strokeColor=none;fillColor=none;align=center;verticalAlign=middle;whiteSpace=wrap;rounded=0;fontSize=20;" vertex="1" parent="1">
          <mxGeometry x="915" y="396" width="32" height="30" as="geometry" />
        </mxCell>
        <mxCell id="WQWKy0i_2Ee1M4cCrUGG-46" value="&lt;font style=&quot;font-size: 20px;&quot;&gt;`e_3`&lt;/font&gt;" style="text;html=1;strokeColor=none;fillColor=none;align=center;verticalAlign=middle;whiteSpace=wrap;rounded=0;fontSize=20;" vertex="1" parent="1">
          <mxGeometry x="975" y="396" width="32" height="30" as="geometry" />
        </mxCell>
        <mxCell id="WQWKy0i_2Ee1M4cCrUGG-47" value="&lt;font style=&quot;font-size: 20px;&quot;&gt;`e_4`&lt;/font&gt;" style="text;html=1;strokeColor=none;fillColor=none;align=center;verticalAlign=middle;whiteSpace=wrap;rounded=0;fontSize=20;" vertex="1" parent="1">
          <mxGeometry x="1034" y="396" width="32" height="30" as="geometry" />
        </mxCell>
        <mxCell id="WQWKy0i_2Ee1M4cCrUGG-48" style="edgeStyle=orthogonalEdgeStyle;rounded=0;orthogonalLoop=1;jettySize=auto;html=1;exitX=0.5;exitY=0;exitDx=0;exitDy=0;entryX=0.75;entryY=1;entryDx=0;entryDy=0;fontSize=20;" edge="1" parent="1" source="WQWKy0i_2Ee1M4cCrUGG-49" target="WQWKy0i_2Ee1M4cCrUGG-1">
          <mxGeometry relative="1" as="geometry" />
        </mxCell>
        <mxCell id="WQWKy0i_2Ee1M4cCrUGG-49" value="&lt;font style=&quot;font-size: 20px;&quot;&gt;`e_5`&lt;/font&gt;" style="text;html=1;strokeColor=none;fillColor=none;align=center;verticalAlign=middle;whiteSpace=wrap;rounded=0;fontSize=20;" vertex="1" parent="1">
          <mxGeometry x="1095" y="396" width="32" height="30" as="geometry" />
        </mxCell>
        <mxCell id="WQWKy0i_2Ee1M4cCrUGG-50" value="&lt;font style=&quot;font-size: 20px;&quot;&gt;`e_6`&lt;/font&gt;" style="text;html=1;strokeColor=none;fillColor=none;align=center;verticalAlign=middle;whiteSpace=wrap;rounded=0;fontSize=20;" vertex="1" parent="1">
          <mxGeometry x="1154" y="396" width="32" height="30" as="geometry" />
        </mxCell>
        <mxCell id="WQWKy0i_2Ee1M4cCrUGG-51" style="edgeStyle=orthogonalEdgeStyle;rounded=0;orthogonalLoop=1;jettySize=auto;html=1;exitX=0.5;exitY=0;exitDx=0;exitDy=0;entryX=0.081;entryY=1.015;entryDx=0;entryDy=0;entryPerimeter=0;fontSize=20;" edge="1" parent="1" source="WQWKy0i_2Ee1M4cCrUGG-43">
          <mxGeometry relative="1" as="geometry">
            <mxPoint x="871.1600000000001" y="355.6600000000001" as="targetPoint" />
          </mxGeometry>
        </mxCell>
        <mxCell id="WQWKy0i_2Ee1M4cCrUGG-52" style="edgeStyle=orthogonalEdgeStyle;rounded=0;orthogonalLoop=1;jettySize=auto;html=1;exitX=0.5;exitY=0;exitDx=0;exitDy=0;entryX=0.417;entryY=0.985;entryDx=0;entryDy=0;entryPerimeter=0;fontSize=20;" edge="1" parent="1" source="WQWKy0i_2Ee1M4cCrUGG-46" target="WQWKy0i_2Ee1M4cCrUGG-23">
          <mxGeometry relative="1" as="geometry" />
        </mxCell>
        <mxCell id="WQWKy0i_2Ee1M4cCrUGG-53" style="edgeStyle=orthogonalEdgeStyle;rounded=0;orthogonalLoop=1;jettySize=auto;html=1;exitX=0.5;exitY=0;exitDx=0;exitDy=0;entryX=0.58;entryY=0.985;entryDx=0;entryDy=0;entryPerimeter=0;fontSize=20;" edge="1" parent="1" source="WQWKy0i_2Ee1M4cCrUGG-47" target="WQWKy0i_2Ee1M4cCrUGG-23">
          <mxGeometry relative="1" as="geometry" />
        </mxCell>
        <mxCell id="WQWKy0i_2Ee1M4cCrUGG-54" style="edgeStyle=orthogonalEdgeStyle;rounded=0;orthogonalLoop=1;jettySize=auto;html=1;exitX=0.5;exitY=0;exitDx=0;exitDy=0;entryX=0.914;entryY=0.977;entryDx=0;entryDy=0;entryPerimeter=0;fontSize=20;" edge="1" parent="1" source="WQWKy0i_2Ee1M4cCrUGG-50" target="WQWKy0i_2Ee1M4cCrUGG-23">
          <mxGeometry relative="1" as="geometry" />
        </mxCell>
        <mxCell id="WQWKy0i_2Ee1M4cCrUGG-55" style="edgeStyle=orthogonalEdgeStyle;rounded=0;orthogonalLoop=1;jettySize=auto;html=1;exitX=1;exitY=0.5;exitDx=0;exitDy=0;entryX=0;entryY=0.5;entryDx=0;entryDy=0;fontSize=20;" edge="1" parent="1" source="WQWKy0i_2Ee1M4cCrUGG-56" target="WQWKy0i_2Ee1M4cCrUGG-76">
          <mxGeometry relative="1" as="geometry" />
        </mxCell>
        <mxCell id="WQWKy0i_2Ee1M4cCrUGG-56" value="" style="rounded=0;whiteSpace=wrap;html=1;fontSize=20;" vertex="1" parent="1">
          <mxGeometry x="841" y="120" width="360" height="40" as="geometry" />
        </mxCell>
        <mxCell id="WQWKy0i_2Ee1M4cCrUGG-57" value="&lt;span style=&quot;font-size: 20px;&quot;&gt;0&lt;/span&gt;" style="text;html=1;strokeColor=none;fillColor=none;align=center;verticalAlign=middle;whiteSpace=wrap;rounded=0;fontSize=20;" vertex="1" parent="1">
          <mxGeometry x="855" y="125" width="32" height="30" as="geometry" />
        </mxCell>
        <mxCell id="WQWKy0i_2Ee1M4cCrUGG-58" style="edgeStyle=orthogonalEdgeStyle;rounded=0;orthogonalLoop=1;jettySize=auto;html=1;exitX=0.25;exitY=0;exitDx=0;exitDy=0;entryX=0.5;entryY=1;entryDx=0;entryDy=0;fontSize=20;" edge="1" parent="1" source="WQWKy0i_2Ee1M4cCrUGG-1" target="WQWKy0i_2Ee1M4cCrUGG-59">
          <mxGeometry relative="1" as="geometry" />
        </mxCell>
        <mxCell id="WQWKy0i_2Ee1M4cCrUGG-59" value="&lt;span style=&quot;font-size: 20px;&quot;&gt;1&lt;/span&gt;" style="text;html=1;strokeColor=none;fillColor=none;align=center;verticalAlign=middle;whiteSpace=wrap;rounded=0;fontSize=20;" vertex="1" parent="1">
          <mxGeometry x="915" y="125" width="32" height="30" as="geometry" />
        </mxCell>
        <mxCell id="WQWKy0i_2Ee1M4cCrUGG-60" value="&lt;span style=&quot;font-size: 20px;&quot;&gt;0&lt;/span&gt;" style="text;html=1;strokeColor=none;fillColor=none;align=center;verticalAlign=middle;whiteSpace=wrap;rounded=0;fontSize=20;" vertex="1" parent="1">
          <mxGeometry x="975" y="125" width="32" height="30" as="geometry" />
        </mxCell>
        <mxCell id="WQWKy0i_2Ee1M4cCrUGG-61" value="&lt;span style=&quot;font-size: 20px;&quot;&gt;1&lt;/span&gt;" style="text;html=1;strokeColor=none;fillColor=none;align=center;verticalAlign=middle;whiteSpace=wrap;rounded=0;fontSize=20;" vertex="1" parent="1">
          <mxGeometry x="1034" y="125" width="32" height="30" as="geometry" />
        </mxCell>
        <mxCell id="WQWKy0i_2Ee1M4cCrUGG-62" style="edgeStyle=orthogonalEdgeStyle;rounded=0;orthogonalLoop=1;jettySize=auto;html=1;exitX=0.75;exitY=0;exitDx=0;exitDy=0;entryX=0.5;entryY=1;entryDx=0;entryDy=0;fontSize=20;" edge="1" parent="1" source="WQWKy0i_2Ee1M4cCrUGG-1" target="WQWKy0i_2Ee1M4cCrUGG-63">
          <mxGeometry relative="1" as="geometry" />
        </mxCell>
        <mxCell id="WQWKy0i_2Ee1M4cCrUGG-63" value="&lt;font style=&quot;font-size: 20px;&quot;&gt;1&lt;/font&gt;" style="text;html=1;strokeColor=none;fillColor=none;align=center;verticalAlign=middle;whiteSpace=wrap;rounded=0;fontSize=20;" vertex="1" parent="1">
          <mxGeometry x="1095" y="125" width="32" height="30" as="geometry" />
        </mxCell>
        <mxCell id="WQWKy0i_2Ee1M4cCrUGG-64" value="&lt;span style=&quot;font-size: 20px;&quot;&gt;0&lt;/span&gt;" style="text;html=1;strokeColor=none;fillColor=none;align=center;verticalAlign=middle;whiteSpace=wrap;rounded=0;fontSize=20;" vertex="1" parent="1">
          <mxGeometry x="1154" y="125" width="32" height="30" as="geometry" />
        </mxCell>
        <mxCell id="WQWKy0i_2Ee1M4cCrUGG-65" style="edgeStyle=orthogonalEdgeStyle;rounded=0;orthogonalLoop=1;jettySize=auto;html=1;exitX=0.582;exitY=-0.001;exitDx=0;exitDy=0;entryX=0.5;entryY=1;entryDx=0;entryDy=0;exitPerimeter=0;fontSize=20;" edge="1" parent="1" source="WQWKy0i_2Ee1M4cCrUGG-1" target="WQWKy0i_2Ee1M4cCrUGG-61">
          <mxGeometry relative="1" as="geometry" />
        </mxCell>
        <mxCell id="WQWKy0i_2Ee1M4cCrUGG-66" style="edgeStyle=orthogonalEdgeStyle;rounded=0;orthogonalLoop=1;jettySize=auto;html=1;exitX=0.5;exitY=1;exitDx=0;exitDy=0;entryX=0.5;entryY=1;entryDx=0;entryDy=0;fontSize=20;" edge="1" parent="1" target="WQWKy0i_2Ee1M4cCrUGG-64">
          <mxGeometry relative="1" as="geometry">
            <mxPoint x="1170" y="178" as="sourcePoint" />
          </mxGeometry>
        </mxCell>
        <mxCell id="WQWKy0i_2Ee1M4cCrUGG-67" style="edgeStyle=orthogonalEdgeStyle;rounded=0;orthogonalLoop=1;jettySize=auto;html=1;exitX=0.082;exitY=-0.015;exitDx=0;exitDy=0;entryX=0.5;entryY=1;entryDx=0;entryDy=0;exitPerimeter=0;fontSize=20;" edge="1" parent="1" source="WQWKy0i_2Ee1M4cCrUGG-2" target="WQWKy0i_2Ee1M4cCrUGG-57">
          <mxGeometry relative="1" as="geometry" />
        </mxCell>
        <mxCell id="WQWKy0i_2Ee1M4cCrUGG-68" style="edgeStyle=orthogonalEdgeStyle;rounded=0;orthogonalLoop=1;jettySize=auto;html=1;exitX=0.417;exitY=0;exitDx=0;exitDy=0;entryX=0.5;entryY=1;entryDx=0;entryDy=0;exitPerimeter=0;fontSize=20;" edge="1" parent="1" source="WQWKy0i_2Ee1M4cCrUGG-2" target="WQWKy0i_2Ee1M4cCrUGG-60">
          <mxGeometry relative="1" as="geometry" />
        </mxCell>
        <mxCell id="WQWKy0i_2Ee1M4cCrUGG-69" value="" style="shape=table;startSize=0;container=1;collapsible=0;childLayout=tableLayout;fontSize=20;" vertex="1" parent="1">
          <mxGeometry x="1244" y="179" width="55" height="176" as="geometry" />
        </mxCell>
        <mxCell id="WQWKy0i_2Ee1M4cCrUGG-70" value="" style="shape=tableRow;horizontal=0;startSize=0;swimlaneHead=0;swimlaneBody=0;strokeColor=inherit;top=0;left=0;bottom=0;right=0;collapsible=0;dropTarget=0;fillColor=none;points=[[0,0.5],[1,0.5]];portConstraint=eastwest;fontSize=20;" vertex="1" parent="WQWKy0i_2Ee1M4cCrUGG-69">
          <mxGeometry width="55" height="44" as="geometry" />
        </mxCell>
        <mxCell id="WQWKy0i_2Ee1M4cCrUGG-71" value="`\sqrt(5)`" style="shape=partialRectangle;html=1;whiteSpace=wrap;connectable=0;strokeColor=inherit;overflow=hidden;fillColor=none;top=0;left=0;bottom=0;right=0;pointerEvents=1;fontSize=20;" vertex="1" parent="WQWKy0i_2Ee1M4cCrUGG-70">
          <mxGeometry width="55" height="44" as="geometry">
            <mxRectangle width="55" height="44" as="alternateBounds" />
          </mxGeometry>
        </mxCell>
        <mxCell id="WQWKy0i_2Ee1M4cCrUGG-72" value="" style="shape=tableRow;horizontal=0;startSize=0;swimlaneHead=0;swimlaneBody=0;strokeColor=inherit;top=0;left=0;bottom=0;right=0;collapsible=0;dropTarget=0;fillColor=none;points=[[0,0.5],[1,0.5]];portConstraint=eastwest;fontSize=20;" vertex="1" parent="WQWKy0i_2Ee1M4cCrUGG-69">
          <mxGeometry y="44" width="55" height="44" as="geometry" />
        </mxCell>
        <mxCell id="WQWKy0i_2Ee1M4cCrUGG-73" value="`1`" style="shape=partialRectangle;html=1;whiteSpace=wrap;connectable=0;strokeColor=inherit;overflow=hidden;fillColor=none;top=0;left=0;bottom=0;right=0;pointerEvents=1;fontSize=20;" vertex="1" parent="WQWKy0i_2Ee1M4cCrUGG-72">
          <mxGeometry width="55" height="44" as="geometry">
            <mxRectangle width="55" height="44" as="alternateBounds" />
          </mxGeometry>
        </mxCell>
        <mxCell id="WQWKy0i_2Ee1M4cCrUGG-74" style="shape=tableRow;horizontal=0;startSize=0;swimlaneHead=0;swimlaneBody=0;strokeColor=inherit;top=0;left=0;bottom=0;right=0;collapsible=0;dropTarget=0;fillColor=none;points=[[0,0.5],[1,0.5]];portConstraint=eastwest;fontSize=20;" vertex="1" parent="WQWKy0i_2Ee1M4cCrUGG-69">
          <mxGeometry y="88" width="55" height="44" as="geometry" />
        </mxCell>
        <mxCell id="WQWKy0i_2Ee1M4cCrUGG-75" value="`2`" style="shape=partialRectangle;html=1;whiteSpace=wrap;connectable=0;strokeColor=inherit;overflow=hidden;fillColor=none;top=0;left=0;bottom=0;right=0;pointerEvents=1;fontSize=20;" vertex="1" parent="WQWKy0i_2Ee1M4cCrUGG-74">
          <mxGeometry width="55" height="44" as="geometry">
            <mxRectangle width="55" height="44" as="alternateBounds" />
          </mxGeometry>
        </mxCell>
        <mxCell id="WQWKy0i_2Ee1M4cCrUGG-76" style="shape=tableRow;horizontal=0;startSize=0;swimlaneHead=0;swimlaneBody=0;strokeColor=inherit;top=0;left=0;bottom=0;right=0;collapsible=0;dropTarget=0;fillColor=none;points=[[0,0.5],[1,0.5]];portConstraint=eastwest;fontSize=20;" vertex="1" parent="WQWKy0i_2Ee1M4cCrUGG-69">
          <mxGeometry y="132" width="55" height="44" as="geometry" />
        </mxCell>
        <mxCell id="WQWKy0i_2Ee1M4cCrUGG-77" value="`\sqrt(3)`" style="shape=partialRectangle;html=1;whiteSpace=wrap;connectable=0;strokeColor=inherit;overflow=hidden;fillColor=none;top=0;left=0;bottom=0;right=0;pointerEvents=1;fontSize=20;" vertex="1" parent="WQWKy0i_2Ee1M4cCrUGG-76">
          <mxGeometry width="55" height="44" as="geometry">
            <mxRectangle width="55" height="44" as="alternateBounds" />
          </mxGeometry>
        </mxCell>
        <mxCell id="WQWKy0i_2Ee1M4cCrUGG-78" style="edgeStyle=orthogonalEdgeStyle;rounded=0;orthogonalLoop=1;jettySize=auto;html=1;exitX=1;exitY=0.5;exitDx=0;exitDy=0;entryX=0.008;entryY=0.126;entryDx=0;entryDy=0;entryPerimeter=0;fontSize=20;" edge="1" parent="1" source="WQWKy0i_2Ee1M4cCrUGG-56" target="WQWKy0i_2Ee1M4cCrUGG-69">
          <mxGeometry relative="1" as="geometry" />
        </mxCell>
        <mxCell id="WQWKy0i_2Ee1M4cCrUGG-79" style="edgeStyle=orthogonalEdgeStyle;rounded=0;orthogonalLoop=1;jettySize=auto;html=1;exitX=1;exitY=0.5;exitDx=0;exitDy=0;entryX=-0.008;entryY=0.126;entryDx=0;entryDy=0;entryPerimeter=0;fontSize=20;" edge="1" parent="1" source="WQWKy0i_2Ee1M4cCrUGG-2" target="WQWKy0i_2Ee1M4cCrUGG-69">
          <mxGeometry relative="1" as="geometry" />
        </mxCell>
        <mxCell id="WQWKy0i_2Ee1M4cCrUGG-80" style="edgeStyle=orthogonalEdgeStyle;rounded=0;orthogonalLoop=1;jettySize=auto;html=1;exitX=1;exitY=0.5;exitDx=0;exitDy=0;entryX=0.009;entryY=0.376;entryDx=0;entryDy=0;entryPerimeter=0;fontSize=20;" edge="1" parent="1" source="WQWKy0i_2Ee1M4cCrUGG-56" target="WQWKy0i_2Ee1M4cCrUGG-69">
          <mxGeometry relative="1" as="geometry" />
        </mxCell>
        <mxCell id="WQWKy0i_2Ee1M4cCrUGG-81" style="edgeStyle=orthogonalEdgeStyle;rounded=0;orthogonalLoop=1;jettySize=auto;html=1;exitX=1;exitY=0.5;exitDx=0;exitDy=0;entryX=0;entryY=0.5;entryDx=0;entryDy=0;fontSize=20;" edge="1" parent="1" source="WQWKy0i_2Ee1M4cCrUGG-9" target="WQWKy0i_2Ee1M4cCrUGG-72">
          <mxGeometry relative="1" as="geometry" />
        </mxCell>
        <mxCell id="WQWKy0i_2Ee1M4cCrUGG-82" style="edgeStyle=orthogonalEdgeStyle;rounded=0;orthogonalLoop=1;jettySize=auto;html=1;exitX=1;exitY=0.5;exitDx=0;exitDy=0;entryX=0;entryY=0.5;entryDx=0;entryDy=0;fontSize=20;" edge="1" parent="1" source="WQWKy0i_2Ee1M4cCrUGG-16" target="WQWKy0i_2Ee1M4cCrUGG-74">
          <mxGeometry relative="1" as="geometry" />
        </mxCell>
        <mxCell id="WQWKy0i_2Ee1M4cCrUGG-83" style="edgeStyle=orthogonalEdgeStyle;rounded=0;orthogonalLoop=1;jettySize=auto;html=1;exitX=1;exitY=0.5;exitDx=0;exitDy=0;entryX=0;entryY=0.5;entryDx=0;entryDy=0;fontSize=20;" edge="1" parent="1" source="WQWKy0i_2Ee1M4cCrUGG-23" target="WQWKy0i_2Ee1M4cCrUGG-76">
          <mxGeometry relative="1" as="geometry" />
        </mxCell>
        <mxCell id="WQWKy0i_2Ee1M4cCrUGG-84" style="edgeStyle=orthogonalEdgeStyle;rounded=0;orthogonalLoop=1;jettySize=auto;html=1;exitX=1;exitY=0.5;exitDx=0;exitDy=0;entryX=-0.008;entryY=0.622;entryDx=0;entryDy=0;entryPerimeter=0;fontSize=20;" edge="1" parent="1" source="WQWKy0i_2Ee1M4cCrUGG-56" target="WQWKy0i_2Ee1M4cCrUGG-69">
          <mxGeometry relative="1" as="geometry" />
        </mxCell>
        <mxCell id="WQWKy0i_2Ee1M4cCrUGG-85" value="&lt;font style=&quot;font-size: 20px;&quot;&gt;Euclidean&lt;/font&gt;&lt;div style=&quot;font-size: 20px;&quot;&gt;&lt;font style=&quot;font-size: 20px;&quot;&gt;Distance&lt;/font&gt;&lt;/div&gt;" style="text;html=1;strokeColor=none;fillColor=none;align=center;verticalAlign=middle;whiteSpace=wrap;rounded=0;fontSize=20;" vertex="1" parent="1">
          <mxGeometry x="1241.25" y="137" width="68.5" height="30" as="geometry" />
        </mxCell>
        <mxCell id="WQWKy0i_2Ee1M4cCrUGG-86" value="&lt;font style=&quot;font-size: 20px;&quot;&gt;`C_2`&lt;/font&gt;" style="text;html=1;strokeColor=none;fillColor=none;align=center;verticalAlign=middle;whiteSpace=wrap;rounded=0;fontSize=20;" vertex="1" parent="1">
          <mxGeometry x="1344.5" y="253" width="42" height="30" as="geometry" />
        </mxCell>
        <mxCell id="WQWKy0i_2Ee1M4cCrUGG-87" style="edgeStyle=orthogonalEdgeStyle;rounded=0;orthogonalLoop=1;jettySize=auto;html=1;exitX=1.032;exitY=0.027;exitDx=0;exitDy=0;entryX=0;entryY=0.5;entryDx=0;entryDy=0;exitPerimeter=0;fontSize=20;" edge="1" parent="1" source="WQWKy0i_2Ee1M4cCrUGG-74" target="WQWKy0i_2Ee1M4cCrUGG-86">
          <mxGeometry relative="1" as="geometry">
            <mxPoint x="1323.9999999999998" y="267" as="sourcePoint" />
          </mxGeometry>
        </mxCell>
        <mxCell id="WQWKy0i_2Ee1M4cCrUGG-88" value="&lt;font style=&quot;font-size: 20px;&quot;&gt;Sample&lt;/font&gt;" style="text;html=1;strokeColor=none;fillColor=none;align=center;verticalAlign=middle;whiteSpace=wrap;rounded=0;rotation=0;fontSize=20;" vertex="1" parent="1">
          <mxGeometry x="735" y="435" width="60" height="30" as="geometry" />
        </mxCell>
        <mxCell id="WQWKy0i_2Ee1M4cCrUGG-89" value="&lt;font style=&quot;font-size: 20px;&quot;&gt;predicted&lt;/font&gt;&lt;div style=&quot;font-size: 20px;&quot;&gt;&lt;font style=&quot;font-size: 20px;&quot;&gt;Class&lt;/font&gt;&lt;/div&gt;" style="text;html=1;strokeColor=none;fillColor=none;align=center;verticalAlign=middle;whiteSpace=wrap;rounded=0;rotation=0;fontSize=20;" vertex="1" parent="1">
          <mxGeometry x="1326" y="217" width="79" height="30" as="geometry" />
        </mxCell>
        <mxCell id="WQWKy0i_2Ee1M4cCrUGG-91" value="&lt;font style=&quot;font-size: 20px;&quot;&gt;Base&lt;/font&gt;&lt;div style=&quot;font-size: 20px;&quot;&gt;&lt;font style=&quot;font-size: 20px;&quot;&gt;Classifier&lt;/font&gt;&lt;/div&gt;" style="text;html=1;strokeColor=none;fillColor=none;align=center;verticalAlign=middle;whiteSpace=wrap;rounded=0;rotation=0;fontSize=20;" vertex="1" parent="1">
          <mxGeometry x="841" y="463" width="60" height="30" as="geometry" />
        </mxCell>
        <mxCell id="WQWKy0i_2Ee1M4cCrUGG-95" style="edgeStyle=orthogonalEdgeStyle;rounded=0;orthogonalLoop=1;jettySize=auto;html=1;entryX=0.081;entryY=1.015;entryDx=0;entryDy=0;entryPerimeter=0;fontSize=20;" edge="1" parent="1">
          <mxGeometry relative="1" as="geometry">
            <mxPoint x="870.7100000000002" y="426.0000000000001" as="targetPoint" />
            <mxPoint x="870.9100000000001" y="458" as="sourcePoint" />
          </mxGeometry>
        </mxCell>
      </root>
    </mxGraphModel>
  </diagram>
  <diagram id="BNtc2WRnjmpcqEEBknev" name="第 2 页">
    <mxGraphModel dx="1765" dy="1198" grid="0" gridSize="10" guides="1" tooltips="1" connect="1" arrows="1" fold="1" page="0" pageScale="1" pageWidth="2339" pageHeight="3300" math="1" shadow="0">
      <root>
        <mxCell id="0" />
        <mxCell id="1" parent="0" />
        <mxCell id="Cj1JPOvOofRjtRiuOV3a-3" style="rounded=0;orthogonalLoop=1;jettySize=auto;html=1;exitX=0.5;exitY=1;exitDx=0;exitDy=0;endArrow=none;endFill=0;entryX=0.535;entryY=0.033;entryDx=0;entryDy=0;entryPerimeter=0;fontFamily=Times New Roman;" edge="1" parent="1" source="Cj1JPOvOofRjtRiuOV3a-7" target="Cj1JPOvOofRjtRiuOV3a-12">
          <mxGeometry relative="1" as="geometry">
            <mxPoint x="-123.5" y="64.5" as="targetPoint" />
          </mxGeometry>
        </mxCell>
        <mxCell id="Cj1JPOvOofRjtRiuOV3a-4" value="&lt;font style=&quot;font-size: 20px;&quot;&gt;Y&lt;/font&gt;" style="edgeLabel;html=1;align=center;verticalAlign=middle;resizable=0;points=[];fontFamily=Times New Roman;" vertex="1" connectable="0" parent="Cj1JPOvOofRjtRiuOV3a-3">
          <mxGeometry x="0.0758" y="-2" relative="1" as="geometry">
            <mxPoint x="1" as="offset" />
          </mxGeometry>
        </mxCell>
        <mxCell id="Cj1JPOvOofRjtRiuOV3a-5" style="rounded=0;orthogonalLoop=1;jettySize=auto;html=1;exitX=0.5;exitY=1;exitDx=0;exitDy=0;endArrow=none;endFill=0;entryX=0.5;entryY=0;entryDx=0;entryDy=0;fontFamily=Times New Roman;" edge="1" parent="1" source="Cj1JPOvOofRjtRiuOV3a-7" target="Cj1JPOvOofRjtRiuOV3a-15">
          <mxGeometry relative="1" as="geometry">
            <mxPoint x="15" y="63" as="targetPoint" />
          </mxGeometry>
        </mxCell>
        <mxCell id="Cj1JPOvOofRjtRiuOV3a-6" value="&lt;font style=&quot;font-size: 20px;&quot;&gt;N&lt;/font&gt;" style="edgeLabel;html=1;align=center;verticalAlign=middle;resizable=0;points=[];fontFamily=Times New Roman;" vertex="1" connectable="0" parent="Cj1JPOvOofRjtRiuOV3a-5">
          <mxGeometry x="0.0874" y="2" relative="1" as="geometry">
            <mxPoint as="offset" />
          </mxGeometry>
        </mxCell>
        <mxCell id="Cj1JPOvOofRjtRiuOV3a-7" value="&lt;font style=&quot;font-size: 20px;&quot;&gt;CT &amp;lt; 4&lt;/font&gt;" style="rounded=1;whiteSpace=wrap;html=1;fillColor=#f5f5f5;fontColor=#333333;strokeColor=#000000;fontFamily=Times New Roman;" vertex="1" parent="1">
          <mxGeometry x="-96" y="-28" width="86" height="45" as="geometry" />
        </mxCell>
        <mxCell id="Cj1JPOvOofRjtRiuOV3a-8" style="rounded=0;orthogonalLoop=1;jettySize=auto;html=1;exitX=0.5;exitY=1;exitDx=0;exitDy=0;endArrow=none;endFill=0;entryX=0.5;entryY=0;entryDx=0;entryDy=0;fontFamily=Times New Roman;" edge="1" parent="1" source="Cj1JPOvOofRjtRiuOV3a-12" target="Cj1JPOvOofRjtRiuOV3a-14">
          <mxGeometry relative="1" as="geometry">
            <mxPoint x="-180" y="151" as="targetPoint" />
          </mxGeometry>
        </mxCell>
        <mxCell id="Cj1JPOvOofRjtRiuOV3a-9" value="&lt;font style=&quot;font-size: 20px;&quot;&gt;Y&lt;/font&gt;" style="edgeLabel;html=1;align=center;verticalAlign=middle;resizable=0;points=[];fontFamily=Times New Roman;" vertex="1" connectable="0" parent="Cj1JPOvOofRjtRiuOV3a-8">
          <mxGeometry x="-0.0929" y="1" relative="1" as="geometry">
            <mxPoint x="-2" y="1" as="offset" />
          </mxGeometry>
        </mxCell>
        <mxCell id="Cj1JPOvOofRjtRiuOV3a-10" style="rounded=0;orthogonalLoop=1;jettySize=auto;html=1;exitX=0.5;exitY=1;exitDx=0;exitDy=0;endArrow=none;endFill=0;entryX=0.5;entryY=0;entryDx=0;entryDy=0;fontFamily=Times New Roman;" edge="1" parent="1" source="Cj1JPOvOofRjtRiuOV3a-12" target="Cj1JPOvOofRjtRiuOV3a-13">
          <mxGeometry relative="1" as="geometry" />
        </mxCell>
        <mxCell id="Cj1JPOvOofRjtRiuOV3a-11" value="&lt;font style=&quot;font-size: 20px;&quot;&gt;N&lt;/font&gt;" style="edgeLabel;html=1;align=center;verticalAlign=middle;resizable=0;points=[];fontFamily=Times New Roman;" vertex="1" connectable="0" parent="Cj1JPOvOofRjtRiuOV3a-10">
          <mxGeometry x="0.1182" relative="1" as="geometry">
            <mxPoint x="-2" y="-3" as="offset" />
          </mxGeometry>
        </mxCell>
        <mxCell id="Cj1JPOvOofRjtRiuOV3a-12" value="&lt;font style=&quot;font-size: 20px;&quot;&gt;CSH &amp;lt; 1&lt;/font&gt;" style="rounded=1;whiteSpace=wrap;html=1;fillColor=#f5f5f5;fontColor=#333333;strokeColor=#000000;fontFamily=Times New Roman;" vertex="1" parent="1">
          <mxGeometry x="-167" y="63" width="86" height="45" as="geometry" />
        </mxCell>
        <mxCell id="Cj1JPOvOofRjtRiuOV3a-13" value="&lt;font&gt;&lt;span style=&quot;font-size: 20px;&quot;&gt;M&lt;/span&gt;&lt;/font&gt;" style="ellipse;whiteSpace=wrap;html=1;fillColor=#d5e8d4;strokeColor=#000000;fontFamily=Times New Roman;" vertex="1" parent="1">
          <mxGeometry x="-105" y="151" width="73" height="51" as="geometry" />
        </mxCell>
        <mxCell id="Cj1JPOvOofRjtRiuOV3a-14" value="&lt;font style=&quot;font-size: 20px;&quot;&gt;B&lt;/font&gt;" style="ellipse;whiteSpace=wrap;html=1;fillColor=#d5e8d4;strokeColor=#000000;fontFamily=Times New Roman;" vertex="1" parent="1">
          <mxGeometry x="-216" y="151" width="73" height="51" as="geometry" />
        </mxCell>
        <mxCell id="Cj1JPOvOofRjtRiuOV3a-15" value="&lt;font&gt;&lt;span style=&quot;font-size: 20px;&quot;&gt;M&lt;/span&gt;&lt;/font&gt;" style="ellipse;whiteSpace=wrap;html=1;fillColor=#d5e8d4;strokeColor=#000000;fontFamily=Times New Roman;" vertex="1" parent="1">
          <mxGeometry x="-35" y="60" width="73" height="51" as="geometry" />
        </mxCell>
        <mxCell id="Cj1JPOvOofRjtRiuOV3a-16" style="rounded=0;orthogonalLoop=1;jettySize=auto;html=1;exitX=0.5;exitY=1;exitDx=0;exitDy=0;endArrow=none;endFill=0;entryX=0.5;entryY=0;entryDx=0;entryDy=0;fontFamily=Times New Roman;" edge="1" parent="1" source="Cj1JPOvOofRjtRiuOV3a-20" target="Cj1JPOvOofRjtRiuOV3a-21">
          <mxGeometry relative="1" as="geometry" />
        </mxCell>
        <mxCell id="Cj1JPOvOofRjtRiuOV3a-17" value="&lt;font style=&quot;font-size: 20px;&quot;&gt;Y&lt;/font&gt;" style="edgeLabel;html=1;align=center;verticalAlign=middle;resizable=0;points=[];fontFamily=Times New Roman;" vertex="1" connectable="0" parent="Cj1JPOvOofRjtRiuOV3a-16">
          <mxGeometry x="0.0758" y="-2" relative="1" as="geometry">
            <mxPoint x="1" as="offset" />
          </mxGeometry>
        </mxCell>
        <mxCell id="Cj1JPOvOofRjtRiuOV3a-18" style="rounded=0;orthogonalLoop=1;jettySize=auto;html=1;exitX=0.5;exitY=1;exitDx=0;exitDy=0;endArrow=none;endFill=0;entryX=0.5;entryY=0;entryDx=0;entryDy=0;fontFamily=Times New Roman;" edge="1" parent="1" source="Cj1JPOvOofRjtRiuOV3a-20" target="Cj1JPOvOofRjtRiuOV3a-26">
          <mxGeometry relative="1" as="geometry">
            <mxPoint x="264" y="55.5" as="targetPoint" />
          </mxGeometry>
        </mxCell>
        <mxCell id="Cj1JPOvOofRjtRiuOV3a-19" value="&lt;font style=&quot;font-size: 20px;&quot;&gt;N&lt;/font&gt;" style="edgeLabel;html=1;align=center;verticalAlign=middle;resizable=0;points=[];fontFamily=Times New Roman;" vertex="1" connectable="0" parent="Cj1JPOvOofRjtRiuOV3a-18">
          <mxGeometry x="0.0874" y="2" relative="1" as="geometry">
            <mxPoint as="offset" />
          </mxGeometry>
        </mxCell>
        <mxCell id="Cj1JPOvOofRjtRiuOV3a-20" value="&lt;font style=&quot;font-size: 20px;&quot;&gt;CSI &amp;lt; 2&lt;/font&gt;" style="rounded=1;whiteSpace=wrap;html=1;fillColor=#f5f5f5;fontColor=#333333;strokeColor=#000000;fontFamily=Times New Roman;" vertex="1" parent="1">
          <mxGeometry x="182" y="-29.5" width="86" height="45" as="geometry" />
        </mxCell>
        <mxCell id="Cj1JPOvOofRjtRiuOV3a-21" value="&lt;font style=&quot;font-size: 20px;&quot;&gt;B&lt;/font&gt;" style="ellipse;whiteSpace=wrap;html=1;fillColor=#d5e8d4;strokeColor=#000000;fontFamily=Times New Roman;" vertex="1" parent="1">
          <mxGeometry x="123" y="61.5" width="73" height="51" as="geometry" />
        </mxCell>
        <mxCell id="Cj1JPOvOofRjtRiuOV3a-22" style="rounded=0;orthogonalLoop=1;jettySize=auto;html=1;exitX=0.5;exitY=1;exitDx=0;exitDy=0;endArrow=none;endFill=0;entryX=0.5;entryY=0;entryDx=0;entryDy=0;fontFamily=Times New Roman;" edge="1" parent="1" source="Cj1JPOvOofRjtRiuOV3a-26" target="Cj1JPOvOofRjtRiuOV3a-28">
          <mxGeometry relative="1" as="geometry">
            <mxPoint x="246" y="149.5" as="targetPoint" />
          </mxGeometry>
        </mxCell>
        <mxCell id="Cj1JPOvOofRjtRiuOV3a-23" value="&lt;font style=&quot;font-size: 20px;&quot;&gt;Y&lt;/font&gt;" style="edgeLabel;html=1;align=center;verticalAlign=middle;resizable=0;points=[];fontFamily=Times New Roman;" vertex="1" connectable="0" parent="Cj1JPOvOofRjtRiuOV3a-22">
          <mxGeometry x="-0.0929" y="1" relative="1" as="geometry">
            <mxPoint x="-2" y="1" as="offset" />
          </mxGeometry>
        </mxCell>
        <mxCell id="Cj1JPOvOofRjtRiuOV3a-24" style="rounded=0;orthogonalLoop=1;jettySize=auto;html=1;exitX=0.5;exitY=1;exitDx=0;exitDy=0;endArrow=none;endFill=0;entryX=0.5;entryY=0;entryDx=0;entryDy=0;fontFamily=Times New Roman;" edge="1" parent="1" source="Cj1JPOvOofRjtRiuOV3a-26" target="Cj1JPOvOofRjtRiuOV3a-27">
          <mxGeometry relative="1" as="geometry" />
        </mxCell>
        <mxCell id="Cj1JPOvOofRjtRiuOV3a-25" value="&lt;font style=&quot;font-size: 20px;&quot;&gt;N&lt;/font&gt;" style="edgeLabel;html=1;align=center;verticalAlign=middle;resizable=0;points=[];fontFamily=Times New Roman;" vertex="1" connectable="0" parent="Cj1JPOvOofRjtRiuOV3a-24">
          <mxGeometry x="0.1182" relative="1" as="geometry">
            <mxPoint x="-2" y="-3" as="offset" />
          </mxGeometry>
        </mxCell>
        <mxCell id="Cj1JPOvOofRjtRiuOV3a-26" value="&lt;font style=&quot;font-size: 20px;&quot;&gt;CSH &amp;lt; 1&lt;/font&gt;" style="rounded=1;whiteSpace=wrap;html=1;fillColor=#f5f5f5;fontColor=#333333;strokeColor=#000000;fontFamily=Times New Roman;" vertex="1" parent="1">
          <mxGeometry x="259" y="61.5" width="86" height="45" as="geometry" />
        </mxCell>
        <mxCell id="Cj1JPOvOofRjtRiuOV3a-27" value="&lt;font&gt;&lt;span style=&quot;font-size: 20px;&quot;&gt;M&lt;/span&gt;&lt;/font&gt;" style="ellipse;whiteSpace=wrap;html=1;fillColor=#d5e8d4;strokeColor=#000000;fontFamily=Times New Roman;" vertex="1" parent="1">
          <mxGeometry x="321" y="149.5" width="73" height="51" as="geometry" />
        </mxCell>
        <mxCell id="Cj1JPOvOofRjtRiuOV3a-28" value="&lt;font style=&quot;font-size: 20px;&quot;&gt;B&lt;/font&gt;" style="ellipse;whiteSpace=wrap;html=1;fillColor=#d5e8d4;strokeColor=#000000;fontFamily=Times New Roman;" vertex="1" parent="1">
          <mxGeometry x="210" y="149.5" width="73" height="51" as="geometry" />
        </mxCell>
        <mxCell id="Cj1JPOvOofRjtRiuOV3a-29" value="&lt;font style=&quot;font-size: 24px;&quot;&gt;[2,1]&lt;/font&gt;" style="text;html=1;align=center;verticalAlign=middle;whiteSpace=wrap;rounded=0;fontFamily=Times New Roman;" vertex="1" parent="1">
          <mxGeometry x="-83" y="317" width="60" height="30" as="geometry" />
        </mxCell>
        <mxCell id="Cj1JPOvOofRjtRiuOV3a-30" value="&lt;font style=&quot;font-size: 24px;&quot;&gt;[4,1]&lt;/font&gt;" style="text;html=1;align=center;verticalAlign=middle;whiteSpace=wrap;rounded=0;fontFamily=Times New Roman;" vertex="1" parent="1">
          <mxGeometry x="195" y="317" width="60" height="30" as="geometry" />
        </mxCell>
        <mxCell id="Cj1JPOvOofRjtRiuOV3a-31" value="" style="shape=flexArrow;endArrow=classic;html=1;rounded=0;fontFamily=Times New Roman;" edge="1" parent="1">
          <mxGeometry width="50" height="50" relative="1" as="geometry">
            <mxPoint x="-53.34" y="220" as="sourcePoint" />
            <mxPoint x="-53.34" y="292" as="targetPoint" />
          </mxGeometry>
        </mxCell>
        <mxCell id="Cj1JPOvOofRjtRiuOV3a-32" value="" style="shape=flexArrow;endArrow=classic;html=1;rounded=0;fontFamily=Times New Roman;" edge="1" parent="1">
          <mxGeometry width="50" height="50" relative="1" as="geometry">
            <mxPoint x="224.66000000000003" y="219" as="sourcePoint" />
            <mxPoint x="224.66000000000003" y="291" as="targetPoint" />
          </mxGeometry>
        </mxCell>
        <mxCell id="Cj1JPOvOofRjtRiuOV3a-33" value="" style="shape=flexArrow;endArrow=classic;html=1;rounded=0;fontFamily=Times New Roman;" edge="1" parent="1">
          <mxGeometry width="50" height="50" relative="1" as="geometry">
            <mxPoint x="328" y="334" as="sourcePoint" />
            <mxPoint x="432" y="334" as="targetPoint" />
          </mxGeometry>
        </mxCell>
        <mxCell id="Cj1JPOvOofRjtRiuOV3a-34" value="&lt;span style=&quot;font-size: 20px;&quot;&gt;&lt;font&gt;TED calculated by structural vector is 1&lt;/font&gt;&lt;/span&gt;" style="text;html=1;align=center;verticalAlign=middle;whiteSpace=wrap;rounded=0;fontFamily=Times New Roman;" vertex="1" parent="1">
          <mxGeometry x="441" y="319.5" width="179" height="30" as="geometry" />
        </mxCell>
        <mxCell id="Cj1JPOvOofRjtRiuOV3a-35" value="" style="shape=flexArrow;endArrow=classic;html=1;rounded=0;fontFamily=Times New Roman;" edge="1" parent="1">
          <mxGeometry width="50" height="50" relative="1" as="geometry">
            <mxPoint x="366" y="88" as="sourcePoint" />
            <mxPoint x="466" y="88" as="targetPoint" />
          </mxGeometry>
        </mxCell>
        <mxCell id="Cj1JPOvOofRjtRiuOV3a-36" value="&lt;font style=&quot;font-size: 20px;&quot;&gt;TED calculated by transformation is 3&lt;/font&gt;" style="text;html=1;align=center;verticalAlign=middle;whiteSpace=wrap;rounded=0;fontFamily=Times New Roman;" vertex="1" parent="1">
          <mxGeometry x="474" y="72" width="158" height="30" as="geometry" />
        </mxCell>
        <mxCell id="Cj1JPOvOofRjtRiuOV3a-37" value="" style="endArrow=classic;html=1;rounded=0;dashed=1;" edge="1" parent="1">
          <mxGeometry width="50" height="50" relative="1" as="geometry">
            <mxPoint x="-2" y="-4" as="sourcePoint" />
            <mxPoint x="178" y="-4" as="targetPoint" />
          </mxGeometry>
        </mxCell>
        <mxCell id="qvHwNR5D7S2WchsSCqwb-1" value="&lt;font style=&quot;font-size: 20px;&quot;&gt;replace&lt;/font&gt;" style="edgeLabel;html=1;align=center;verticalAlign=middle;resizable=0;points=[];" vertex="1" connectable="0" parent="Cj1JPOvOofRjtRiuOV3a-37">
          <mxGeometry x="-0.0115" relative="1" as="geometry">
            <mxPoint y="-17" as="offset" />
          </mxGeometry>
        </mxCell>
        <mxCell id="qvHwNR5D7S2WchsSCqwb-4" value="" style="endArrow=classic;html=1;rounded=0;curved=1;dashed=1;" edge="1" parent="1">
          <mxGeometry width="50" height="50" relative="1" as="geometry">
            <mxPoint x="-81" y="110.5" as="sourcePoint" />
            <mxPoint x="141" y="115" as="targetPoint" />
            <Array as="points">
              <mxPoint x="55" y="188" />
            </Array>
          </mxGeometry>
        </mxCell>
        <mxCell id="qvHwNR5D7S2WchsSCqwb-5" value="&lt;span style=&quot;font-size: 20px;&quot;&gt;pruning&lt;/span&gt;" style="edgeLabel;html=1;align=center;verticalAlign=middle;resizable=0;points=[];" vertex="1" connectable="0" parent="qvHwNR5D7S2WchsSCqwb-4">
          <mxGeometry x="0.6922" y="5" relative="1" as="geometry">
            <mxPoint x="-65" y="32" as="offset" />
          </mxGeometry>
        </mxCell>
        <mxCell id="qvHwNR5D7S2WchsSCqwb-6" value="" style="endArrow=classic;html=1;rounded=0;curved=1;dashed=1;" edge="1" parent="1">
          <mxGeometry width="50" height="50" relative="1" as="geometry">
            <mxPoint x="34" y="106" as="sourcePoint" />
            <mxPoint x="259" y="110" as="targetPoint" />
            <Array as="points">
              <mxPoint x="174" y="196" />
            </Array>
          </mxGeometry>
        </mxCell>
        <mxCell id="qvHwNR5D7S2WchsSCqwb-7" value="&lt;font style=&quot;font-size: 20px;&quot;&gt;split&lt;/font&gt;" style="edgeLabel;html=1;align=center;verticalAlign=middle;resizable=0;points=[];" vertex="1" connectable="0" parent="qvHwNR5D7S2WchsSCqwb-6">
          <mxGeometry x="0.6922" y="5" relative="1" as="geometry">
            <mxPoint x="-65" y="32" as="offset" />
          </mxGeometry>
        </mxCell>
        <mxCell id="7PUW933cD8S1ZVAp5l7W-1" value="&lt;font style=&quot;font-size: 20px;&quot;&gt;`T_1`&lt;/font&gt;" style="text;html=1;align=center;verticalAlign=middle;whiteSpace=wrap;rounded=0;labelBorderColor=none;fontFamily=Times New Roman;" vertex="1" parent="1">
          <mxGeometry x="-146.5" y="-45" width="45" height="30" as="geometry" />
        </mxCell>
        <mxCell id="7PUW933cD8S1ZVAp5l7W-2" value="&lt;font style=&quot;font-size: 20px;&quot;&gt;`T_2`&lt;/font&gt;" style="text;html=1;align=center;verticalAlign=middle;whiteSpace=wrap;rounded=0;labelBorderColor=none;fontFamily=Times New Roman;" vertex="1" parent="1">
          <mxGeometry x="279.5" y="-45" width="45" height="30" as="geometry" />
        </mxCell>
      </root>
    </mxGraphModel>
  </diagram>
  <diagram id="awug1bpL7mhr8Ncq0zJr" name="第 3 页">
    <mxGraphModel dx="1765" dy="1198" grid="0" gridSize="10" guides="1" tooltips="1" connect="1" arrows="1" fold="1" page="0" pageScale="1" pageWidth="2339" pageHeight="3300" math="1" shadow="0">
      <root>
        <mxCell id="0" />
        <mxCell id="1" parent="0" />
        <mxCell id="q68G4hHnIbB-3GI58oIF-1" style="rounded=0;orthogonalLoop=1;jettySize=auto;html=1;exitX=0.5;exitY=1;exitDx=0;exitDy=0;endArrow=none;endFill=0;entryX=0.535;entryY=0.033;entryDx=0;entryDy=0;entryPerimeter=0;fontFamily=Times New Roman;" edge="1" parent="1" source="q68G4hHnIbB-3GI58oIF-5" target="q68G4hHnIbB-3GI58oIF-10">
          <mxGeometry relative="1" as="geometry">
            <mxPoint x="292.5" y="96.5" as="targetPoint" />
          </mxGeometry>
        </mxCell>
        <mxCell id="q68G4hHnIbB-3GI58oIF-2" value="&lt;font style=&quot;font-size: 20px;&quot;&gt;Y&lt;/font&gt;" style="edgeLabel;html=1;align=center;verticalAlign=middle;resizable=0;points=[];fontFamily=Times New Roman;" vertex="1" connectable="0" parent="q68G4hHnIbB-3GI58oIF-1">
          <mxGeometry x="0.0758" y="-2" relative="1" as="geometry">
            <mxPoint x="1" as="offset" />
          </mxGeometry>
        </mxCell>
        <mxCell id="q68G4hHnIbB-3GI58oIF-3" style="rounded=0;orthogonalLoop=1;jettySize=auto;html=1;exitX=0.5;exitY=1;exitDx=0;exitDy=0;endArrow=none;endFill=0;entryX=0.5;entryY=0;entryDx=0;entryDy=0;fontFamily=Times New Roman;" edge="1" parent="1" source="q68G4hHnIbB-3GI58oIF-5" target="q68G4hHnIbB-3GI58oIF-15">
          <mxGeometry relative="1" as="geometry">
            <mxPoint x="608" y="102" as="targetPoint" />
          </mxGeometry>
        </mxCell>
        <mxCell id="q68G4hHnIbB-3GI58oIF-4" value="&lt;font style=&quot;font-size: 20px;&quot;&gt;N&lt;/font&gt;" style="edgeLabel;html=1;align=center;verticalAlign=middle;resizable=0;points=[];fontFamily=Times New Roman;" vertex="1" connectable="0" parent="q68G4hHnIbB-3GI58oIF-3">
          <mxGeometry x="0.0874" y="2" relative="1" as="geometry">
            <mxPoint as="offset" />
          </mxGeometry>
        </mxCell>
        <mxCell id="q68G4hHnIbB-3GI58oIF-5" value="&lt;font style=&quot;font-size: 20px;&quot;&gt;CT &amp;lt; 4&lt;/font&gt;" style="rounded=1;whiteSpace=wrap;html=1;fillColor=#f5f5f5;fontColor=#333333;strokeColor=#000000;fontFamily=Times New Roman;" vertex="1" parent="1">
          <mxGeometry x="449" y="-6" width="86" height="45" as="geometry" />
        </mxCell>
        <mxCell id="q68G4hHnIbB-3GI58oIF-6" style="rounded=0;orthogonalLoop=1;jettySize=auto;html=1;exitX=0.5;exitY=1;exitDx=0;exitDy=0;endArrow=none;endFill=0;entryX=0.5;entryY=0;entryDx=0;entryDy=0;fontFamily=Times New Roman;" edge="1" parent="1" source="q68G4hHnIbB-3GI58oIF-10" target="q68G4hHnIbB-3GI58oIF-34">
          <mxGeometry relative="1" as="geometry">
            <mxPoint x="236.5" y="183" as="targetPoint" />
          </mxGeometry>
        </mxCell>
        <mxCell id="q68G4hHnIbB-3GI58oIF-7" value="&lt;font style=&quot;font-size: 20px;&quot;&gt;Y&lt;/font&gt;" style="edgeLabel;html=1;align=center;verticalAlign=middle;resizable=0;points=[];fontFamily=Times New Roman;" vertex="1" connectable="0" parent="q68G4hHnIbB-3GI58oIF-6">
          <mxGeometry x="-0.0929" y="1" relative="1" as="geometry">
            <mxPoint x="-2" y="1" as="offset" />
          </mxGeometry>
        </mxCell>
        <mxCell id="q68G4hHnIbB-3GI58oIF-8" style="rounded=0;orthogonalLoop=1;jettySize=auto;html=1;exitX=0.5;exitY=1;exitDx=0;exitDy=0;endArrow=none;endFill=0;entryX=0.5;entryY=0;entryDx=0;entryDy=0;fontFamily=Times New Roman;" edge="1" parent="1" source="q68G4hHnIbB-3GI58oIF-10" target="q68G4hHnIbB-3GI58oIF-41">
          <mxGeometry relative="1" as="geometry">
            <mxPoint x="347.5" y="183" as="targetPoint" />
          </mxGeometry>
        </mxCell>
        <mxCell id="q68G4hHnIbB-3GI58oIF-9" value="&lt;font style=&quot;font-size: 20px;&quot;&gt;N&lt;/font&gt;" style="edgeLabel;html=1;align=center;verticalAlign=middle;resizable=0;points=[];fontFamily=Times New Roman;" vertex="1" connectable="0" parent="q68G4hHnIbB-3GI58oIF-8">
          <mxGeometry x="0.1182" relative="1" as="geometry">
            <mxPoint x="-2" y="-3" as="offset" />
          </mxGeometry>
        </mxCell>
        <mxCell id="q68G4hHnIbB-3GI58oIF-10" value="&lt;font style=&quot;font-size: 20px;&quot;&gt;CSH &amp;lt; 1&lt;/font&gt;" style="rounded=1;whiteSpace=wrap;html=1;fillColor=#f5f5f5;fontColor=#333333;strokeColor=#000000;fontFamily=Times New Roman;" vertex="1" parent="1">
          <mxGeometry x="249" y="95" width="86" height="45" as="geometry" />
        </mxCell>
        <mxCell id="q68G4hHnIbB-3GI58oIF-11" style="rounded=0;orthogonalLoop=1;jettySize=auto;html=1;exitX=0.5;exitY=1;exitDx=0;exitDy=0;endArrow=none;endFill=0;entryX=0.5;entryY=0;entryDx=0;entryDy=0;fontFamily=Times New Roman;" edge="1" parent="1" source="q68G4hHnIbB-3GI58oIF-15" target="q68G4hHnIbB-3GI58oIF-20">
          <mxGeometry relative="1" as="geometry">
            <mxPoint x="633.5" y="187" as="targetPoint" />
          </mxGeometry>
        </mxCell>
        <mxCell id="q68G4hHnIbB-3GI58oIF-12" value="&lt;font style=&quot;font-size: 20px;&quot;&gt;Y&lt;/font&gt;" style="edgeLabel;html=1;align=center;verticalAlign=middle;resizable=0;points=[];fontFamily=Times New Roman;" vertex="1" connectable="0" parent="q68G4hHnIbB-3GI58oIF-11">
          <mxGeometry x="-0.0929" y="1" relative="1" as="geometry">
            <mxPoint x="-2" y="1" as="offset" />
          </mxGeometry>
        </mxCell>
        <mxCell id="q68G4hHnIbB-3GI58oIF-13" style="rounded=0;orthogonalLoop=1;jettySize=auto;html=1;exitX=0.5;exitY=1;exitDx=0;exitDy=0;endArrow=none;endFill=0;entryX=0.5;entryY=0;entryDx=0;entryDy=0;fontFamily=Times New Roman;" edge="1" parent="1" source="q68G4hHnIbB-3GI58oIF-15" target="q68G4hHnIbB-3GI58oIF-27">
          <mxGeometry relative="1" as="geometry">
            <mxPoint x="744.5" y="187" as="targetPoint" />
          </mxGeometry>
        </mxCell>
        <mxCell id="q68G4hHnIbB-3GI58oIF-14" value="&lt;font style=&quot;font-size: 20px;&quot;&gt;N&lt;/font&gt;" style="edgeLabel;html=1;align=center;verticalAlign=middle;resizable=0;points=[];fontFamily=Times New Roman;" vertex="1" connectable="0" parent="q68G4hHnIbB-3GI58oIF-13">
          <mxGeometry x="0.1182" relative="1" as="geometry">
            <mxPoint x="-2" y="-3" as="offset" />
          </mxGeometry>
        </mxCell>
        <mxCell id="q68G4hHnIbB-3GI58oIF-15" value="&lt;font style=&quot;font-size: 20px;&quot;&gt;M&lt;/font&gt;" style="rounded=1;whiteSpace=wrap;html=1;fillColor=#f5f5f5;fontColor=#333333;strokeColor=default;dashed=1;dashPattern=8 8;fontFamily=Times New Roman;" vertex="1" parent="1">
          <mxGeometry x="646" y="99" width="86" height="45" as="geometry" />
        </mxCell>
        <mxCell id="q68G4hHnIbB-3GI58oIF-16" style="rounded=0;orthogonalLoop=1;jettySize=auto;html=1;exitX=0.5;exitY=1;exitDx=0;exitDy=0;endArrow=none;endFill=0;entryX=0.5;entryY=0;entryDx=0;entryDy=0;fontFamily=Times New Roman;" edge="1" parent="1" source="q68G4hHnIbB-3GI58oIF-20" target="q68G4hHnIbB-3GI58oIF-22">
          <mxGeometry relative="1" as="geometry">
            <mxPoint x="533" y="280" as="targetPoint" />
          </mxGeometry>
        </mxCell>
        <mxCell id="q68G4hHnIbB-3GI58oIF-17" value="&lt;font style=&quot;font-size: 20px;&quot;&gt;Y&lt;/font&gt;" style="edgeLabel;html=1;align=center;verticalAlign=middle;resizable=0;points=[];fontFamily=Times New Roman;" vertex="1" connectable="0" parent="q68G4hHnIbB-3GI58oIF-16">
          <mxGeometry x="-0.0929" y="1" relative="1" as="geometry">
            <mxPoint x="-2" y="1" as="offset" />
          </mxGeometry>
        </mxCell>
        <mxCell id="q68G4hHnIbB-3GI58oIF-18" style="rounded=0;orthogonalLoop=1;jettySize=auto;html=1;exitX=0.5;exitY=1;exitDx=0;exitDy=0;endArrow=none;endFill=0;entryX=0.5;entryY=0;entryDx=0;entryDy=0;fontFamily=Times New Roman;" edge="1" parent="1" source="q68G4hHnIbB-3GI58oIF-20" target="q68G4hHnIbB-3GI58oIF-21">
          <mxGeometry relative="1" as="geometry" />
        </mxCell>
        <mxCell id="q68G4hHnIbB-3GI58oIF-19" value="&lt;font style=&quot;font-size: 20px;&quot;&gt;N&lt;/font&gt;" style="edgeLabel;html=1;align=center;verticalAlign=middle;resizable=0;points=[];fontFamily=Times New Roman;" vertex="1" connectable="0" parent="q68G4hHnIbB-3GI58oIF-18">
          <mxGeometry x="0.1182" relative="1" as="geometry">
            <mxPoint x="-2" y="-3" as="offset" />
          </mxGeometry>
        </mxCell>
        <mxCell id="q68G4hHnIbB-3GI58oIF-20" value="&lt;font style=&quot;font-size: 20px;&quot;&gt;M&lt;/font&gt;" style="rounded=1;whiteSpace=wrap;html=1;fillColor=#f5f5f5;fontColor=#333333;strokeColor=default;dashed=1;dashPattern=8 8;fontFamily=Times New Roman;" vertex="1" parent="1">
          <mxGeometry x="546" y="192" width="86" height="45" as="geometry" />
        </mxCell>
        <mxCell id="q68G4hHnIbB-3GI58oIF-21" value="&lt;font&gt;&lt;span style=&quot;font-size: 20px;&quot;&gt;M&lt;/span&gt;&lt;/font&gt;" style="ellipse;whiteSpace=wrap;html=1;fillColor=#d5e8d4;strokeColor=#000000;fontFamily=Times New Roman;" vertex="1" parent="1">
          <mxGeometry x="608" y="280" width="73" height="51" as="geometry" />
        </mxCell>
        <mxCell id="q68G4hHnIbB-3GI58oIF-22" value="&lt;font style=&quot;font-size: 20px;&quot;&gt;M&lt;/font&gt;" style="ellipse;whiteSpace=wrap;html=1;fillColor=#d5e8d4;strokeColor=#000000;fontFamily=Times New Roman;" vertex="1" parent="1">
          <mxGeometry x="497" y="280" width="73" height="51" as="geometry" />
        </mxCell>
        <mxCell id="q68G4hHnIbB-3GI58oIF-23" style="rounded=0;orthogonalLoop=1;jettySize=auto;html=1;exitX=0.5;exitY=1;exitDx=0;exitDy=0;endArrow=none;endFill=0;entryX=0.5;entryY=0;entryDx=0;entryDy=0;fontFamily=Times New Roman;" edge="1" parent="1" source="q68G4hHnIbB-3GI58oIF-27" target="q68G4hHnIbB-3GI58oIF-29">
          <mxGeometry relative="1" as="geometry">
            <mxPoint x="732" y="280" as="targetPoint" />
          </mxGeometry>
        </mxCell>
        <mxCell id="q68G4hHnIbB-3GI58oIF-24" value="&lt;font style=&quot;font-size: 20px;&quot;&gt;Y&lt;/font&gt;" style="edgeLabel;html=1;align=center;verticalAlign=middle;resizable=0;points=[];fontFamily=Times New Roman;" vertex="1" connectable="0" parent="q68G4hHnIbB-3GI58oIF-23">
          <mxGeometry x="-0.0929" y="1" relative="1" as="geometry">
            <mxPoint x="-2" y="1" as="offset" />
          </mxGeometry>
        </mxCell>
        <mxCell id="q68G4hHnIbB-3GI58oIF-25" style="rounded=0;orthogonalLoop=1;jettySize=auto;html=1;exitX=0.5;exitY=1;exitDx=0;exitDy=0;endArrow=none;endFill=0;entryX=0.5;entryY=0;entryDx=0;entryDy=0;fontFamily=Times New Roman;" edge="1" parent="1" source="q68G4hHnIbB-3GI58oIF-27" target="q68G4hHnIbB-3GI58oIF-28">
          <mxGeometry relative="1" as="geometry" />
        </mxCell>
        <mxCell id="q68G4hHnIbB-3GI58oIF-26" value="&lt;font style=&quot;font-size: 20px;&quot;&gt;N&lt;/font&gt;" style="edgeLabel;html=1;align=center;verticalAlign=middle;resizable=0;points=[];fontFamily=Times New Roman;" vertex="1" connectable="0" parent="q68G4hHnIbB-3GI58oIF-25">
          <mxGeometry x="0.1182" relative="1" as="geometry">
            <mxPoint x="-2" y="-3" as="offset" />
          </mxGeometry>
        </mxCell>
        <mxCell id="q68G4hHnIbB-3GI58oIF-27" value="&lt;font style=&quot;font-size: 20px;&quot;&gt;M&lt;/font&gt;" style="rounded=1;whiteSpace=wrap;html=1;fillColor=#f5f5f5;fontColor=#333333;strokeColor=default;dashed=1;dashPattern=8 8;fontFamily=Times New Roman;" vertex="1" parent="1">
          <mxGeometry x="745" y="192" width="86" height="45" as="geometry" />
        </mxCell>
        <mxCell id="q68G4hHnIbB-3GI58oIF-28" value="&lt;font&gt;&lt;span style=&quot;font-size: 20px;&quot;&gt;M&lt;/span&gt;&lt;/font&gt;" style="ellipse;whiteSpace=wrap;html=1;fillColor=#d5e8d4;strokeColor=#000000;fontFamily=Times New Roman;" vertex="1" parent="1">
          <mxGeometry x="807" y="280" width="73" height="51" as="geometry" />
        </mxCell>
        <mxCell id="q68G4hHnIbB-3GI58oIF-29" value="&lt;font style=&quot;font-size: 20px;&quot;&gt;M&lt;/font&gt;" style="ellipse;whiteSpace=wrap;html=1;fillColor=#d5e8d4;strokeColor=#000000;fontFamily=Times New Roman;" vertex="1" parent="1">
          <mxGeometry x="696" y="280" width="73" height="51" as="geometry" />
        </mxCell>
        <mxCell id="q68G4hHnIbB-3GI58oIF-30" style="rounded=0;orthogonalLoop=1;jettySize=auto;html=1;exitX=0.5;exitY=1;exitDx=0;exitDy=0;endArrow=none;endFill=0;entryX=0.5;entryY=0;entryDx=0;entryDy=0;fontFamily=Times New Roman;" edge="1" parent="1" source="q68G4hHnIbB-3GI58oIF-34" target="q68G4hHnIbB-3GI58oIF-36">
          <mxGeometry relative="1" as="geometry">
            <mxPoint x="146" y="280" as="targetPoint" />
          </mxGeometry>
        </mxCell>
        <mxCell id="q68G4hHnIbB-3GI58oIF-31" value="&lt;font style=&quot;font-size: 20px;&quot;&gt;Y&lt;/font&gt;" style="edgeLabel;html=1;align=center;verticalAlign=middle;resizable=0;points=[];fontFamily=Times New Roman;" vertex="1" connectable="0" parent="q68G4hHnIbB-3GI58oIF-30">
          <mxGeometry x="-0.0929" y="1" relative="1" as="geometry">
            <mxPoint x="-2" y="1" as="offset" />
          </mxGeometry>
        </mxCell>
        <mxCell id="q68G4hHnIbB-3GI58oIF-32" style="rounded=0;orthogonalLoop=1;jettySize=auto;html=1;exitX=0.5;exitY=1;exitDx=0;exitDy=0;endArrow=none;endFill=0;entryX=0.5;entryY=0;entryDx=0;entryDy=0;fontFamily=Times New Roman;" edge="1" parent="1" source="q68G4hHnIbB-3GI58oIF-34" target="q68G4hHnIbB-3GI58oIF-35">
          <mxGeometry relative="1" as="geometry" />
        </mxCell>
        <mxCell id="q68G4hHnIbB-3GI58oIF-33" value="&lt;font style=&quot;font-size: 20px;&quot;&gt;N&lt;/font&gt;" style="edgeLabel;html=1;align=center;verticalAlign=middle;resizable=0;points=[];fontFamily=Times New Roman;" vertex="1" connectable="0" parent="q68G4hHnIbB-3GI58oIF-32">
          <mxGeometry x="0.1182" relative="1" as="geometry">
            <mxPoint x="-2" y="-3" as="offset" />
          </mxGeometry>
        </mxCell>
        <mxCell id="q68G4hHnIbB-3GI58oIF-34" value="&lt;font style=&quot;font-size: 20px;&quot;&gt;B&lt;/font&gt;" style="rounded=1;whiteSpace=wrap;html=1;fillColor=#f5f5f5;fontColor=#333333;strokeColor=default;dashed=1;dashPattern=8 8;fontFamily=Times New Roman;" vertex="1" parent="1">
          <mxGeometry x="159" y="192" width="86" height="45" as="geometry" />
        </mxCell>
        <mxCell id="q68G4hHnIbB-3GI58oIF-35" value="&lt;font&gt;&lt;span style=&quot;font-size: 20px;&quot;&gt;B&lt;/span&gt;&lt;/font&gt;" style="ellipse;whiteSpace=wrap;html=1;fillColor=#d5e8d4;strokeColor=#000000;fontFamily=Times New Roman;" vertex="1" parent="1">
          <mxGeometry x="221" y="280" width="73" height="51" as="geometry" />
        </mxCell>
        <mxCell id="q68G4hHnIbB-3GI58oIF-36" value="&lt;font style=&quot;font-size: 20px;&quot;&gt;B&lt;/font&gt;" style="ellipse;whiteSpace=wrap;html=1;fillColor=#d5e8d4;strokeColor=#000000;fontFamily=Times New Roman;" vertex="1" parent="1">
          <mxGeometry x="110" y="280" width="73" height="51" as="geometry" />
        </mxCell>
        <mxCell id="q68G4hHnIbB-3GI58oIF-37" style="rounded=0;orthogonalLoop=1;jettySize=auto;html=1;exitX=0.5;exitY=1;exitDx=0;exitDy=0;endArrow=none;endFill=0;entryX=0.5;entryY=0;entryDx=0;entryDy=0;fontFamily=Times New Roman;" edge="1" parent="1" source="q68G4hHnIbB-3GI58oIF-41" target="q68G4hHnIbB-3GI58oIF-43">
          <mxGeometry relative="1" as="geometry">
            <mxPoint x="336" y="280" as="targetPoint" />
          </mxGeometry>
        </mxCell>
        <mxCell id="q68G4hHnIbB-3GI58oIF-38" value="&lt;font style=&quot;font-size: 20px;&quot;&gt;Y&lt;/font&gt;" style="edgeLabel;html=1;align=center;verticalAlign=middle;resizable=0;points=[];fontFamily=Times New Roman;" vertex="1" connectable="0" parent="q68G4hHnIbB-3GI58oIF-37">
          <mxGeometry x="-0.0929" y="1" relative="1" as="geometry">
            <mxPoint x="-2" y="1" as="offset" />
          </mxGeometry>
        </mxCell>
        <mxCell id="q68G4hHnIbB-3GI58oIF-39" style="rounded=0;orthogonalLoop=1;jettySize=auto;html=1;exitX=0.5;exitY=1;exitDx=0;exitDy=0;endArrow=none;endFill=0;entryX=0.5;entryY=0;entryDx=0;entryDy=0;fontFamily=Times New Roman;" edge="1" parent="1" source="q68G4hHnIbB-3GI58oIF-41" target="q68G4hHnIbB-3GI58oIF-42">
          <mxGeometry relative="1" as="geometry" />
        </mxCell>
        <mxCell id="q68G4hHnIbB-3GI58oIF-40" value="&lt;font style=&quot;font-size: 20px;&quot;&gt;N&lt;/font&gt;" style="edgeLabel;html=1;align=center;verticalAlign=middle;resizable=0;points=[];fontFamily=Times New Roman;" vertex="1" connectable="0" parent="q68G4hHnIbB-3GI58oIF-39">
          <mxGeometry x="0.1182" relative="1" as="geometry">
            <mxPoint x="-2" y="-3" as="offset" />
          </mxGeometry>
        </mxCell>
        <mxCell id="q68G4hHnIbB-3GI58oIF-41" value="&lt;font style=&quot;font-size: 20px;&quot;&gt;M&lt;/font&gt;" style="rounded=1;whiteSpace=wrap;html=1;fillColor=#f5f5f5;fontColor=#333333;strokeColor=default;dashed=1;dashPattern=8 8;fontFamily=Times New Roman;" vertex="1" parent="1">
          <mxGeometry x="349" y="192" width="86" height="45" as="geometry" />
        </mxCell>
        <mxCell id="q68G4hHnIbB-3GI58oIF-42" value="&lt;font&gt;&lt;span style=&quot;font-size: 20px;&quot;&gt;M&lt;/span&gt;&lt;/font&gt;" style="ellipse;whiteSpace=wrap;html=1;fillColor=#d5e8d4;strokeColor=#000000;fontFamily=Times New Roman;" vertex="1" parent="1">
          <mxGeometry x="411" y="280" width="73" height="51" as="geometry" />
        </mxCell>
        <mxCell id="q68G4hHnIbB-3GI58oIF-43" value="&lt;font style=&quot;font-size: 20px;&quot;&gt;M&lt;/font&gt;" style="ellipse;whiteSpace=wrap;html=1;fillColor=#d5e8d4;strokeColor=#000000;fontFamily=Times New Roman;" vertex="1" parent="1">
          <mxGeometry x="300" y="280" width="73" height="51" as="geometry" />
        </mxCell>
        <mxCell id="q68G4hHnIbB-3GI58oIF-44" style="rounded=0;orthogonalLoop=1;jettySize=auto;html=1;exitX=0.5;exitY=1;exitDx=0;exitDy=0;endArrow=none;endFill=0;entryX=0.535;entryY=0.033;entryDx=0;entryDy=0;entryPerimeter=0;fontFamily=Times New Roman;" edge="1" parent="1" source="q68G4hHnIbB-3GI58oIF-48" target="q68G4hHnIbB-3GI58oIF-53">
          <mxGeometry relative="1" as="geometry">
            <mxPoint x="-197.5" y="112.5" as="targetPoint" />
          </mxGeometry>
        </mxCell>
        <mxCell id="q68G4hHnIbB-3GI58oIF-45" value="&lt;font style=&quot;font-size: 20px;&quot;&gt;Y&lt;/font&gt;" style="edgeLabel;html=1;align=center;verticalAlign=middle;resizable=0;points=[];fontFamily=Times New Roman;" vertex="1" connectable="0" parent="q68G4hHnIbB-3GI58oIF-44">
          <mxGeometry x="0.0758" y="-2" relative="1" as="geometry">
            <mxPoint x="1" as="offset" />
          </mxGeometry>
        </mxCell>
        <mxCell id="q68G4hHnIbB-3GI58oIF-46" style="rounded=0;orthogonalLoop=1;jettySize=auto;html=1;exitX=0.5;exitY=1;exitDx=0;exitDy=0;endArrow=none;endFill=0;entryX=0.5;entryY=0;entryDx=0;entryDy=0;fontFamily=Times New Roman;" edge="1" parent="1" source="q68G4hHnIbB-3GI58oIF-48" target="q68G4hHnIbB-3GI58oIF-56">
          <mxGeometry relative="1" as="geometry">
            <mxPoint x="-59" y="111" as="targetPoint" />
          </mxGeometry>
        </mxCell>
        <mxCell id="q68G4hHnIbB-3GI58oIF-47" value="&lt;font style=&quot;font-size: 20px;&quot;&gt;N&lt;/font&gt;" style="edgeLabel;html=1;align=center;verticalAlign=middle;resizable=0;points=[];fontFamily=Times New Roman;" vertex="1" connectable="0" parent="q68G4hHnIbB-3GI58oIF-46">
          <mxGeometry x="0.0874" y="2" relative="1" as="geometry">
            <mxPoint as="offset" />
          </mxGeometry>
        </mxCell>
        <mxCell id="q68G4hHnIbB-3GI58oIF-48" value="&lt;font style=&quot;font-size: 20px;&quot;&gt;CT &amp;lt; 4&lt;/font&gt;" style="rounded=1;whiteSpace=wrap;html=1;fillColor=#f5f5f5;fontColor=#333333;strokeColor=#000000;fontFamily=Times New Roman;" vertex="1" parent="1">
          <mxGeometry x="-170" y="20" width="86" height="45" as="geometry" />
        </mxCell>
        <mxCell id="q68G4hHnIbB-3GI58oIF-49" style="rounded=0;orthogonalLoop=1;jettySize=auto;html=1;exitX=0.5;exitY=1;exitDx=0;exitDy=0;endArrow=none;endFill=0;entryX=0.5;entryY=0;entryDx=0;entryDy=0;fontFamily=Times New Roman;" edge="1" parent="1" source="q68G4hHnIbB-3GI58oIF-53" target="q68G4hHnIbB-3GI58oIF-55">
          <mxGeometry relative="1" as="geometry">
            <mxPoint x="-254" y="199" as="targetPoint" />
          </mxGeometry>
        </mxCell>
        <mxCell id="q68G4hHnIbB-3GI58oIF-50" value="&lt;font style=&quot;font-size: 20px;&quot;&gt;Y&lt;/font&gt;" style="edgeLabel;html=1;align=center;verticalAlign=middle;resizable=0;points=[];fontFamily=Times New Roman;" vertex="1" connectable="0" parent="q68G4hHnIbB-3GI58oIF-49">
          <mxGeometry x="-0.0929" y="1" relative="1" as="geometry">
            <mxPoint x="-2" y="1" as="offset" />
          </mxGeometry>
        </mxCell>
        <mxCell id="q68G4hHnIbB-3GI58oIF-51" style="rounded=0;orthogonalLoop=1;jettySize=auto;html=1;exitX=0.5;exitY=1;exitDx=0;exitDy=0;endArrow=none;endFill=0;entryX=0.5;entryY=0;entryDx=0;entryDy=0;fontFamily=Times New Roman;" edge="1" parent="1" source="q68G4hHnIbB-3GI58oIF-53" target="q68G4hHnIbB-3GI58oIF-54">
          <mxGeometry relative="1" as="geometry" />
        </mxCell>
        <mxCell id="q68G4hHnIbB-3GI58oIF-52" value="&lt;font style=&quot;font-size: 20px;&quot;&gt;N&lt;/font&gt;" style="edgeLabel;html=1;align=center;verticalAlign=middle;resizable=0;points=[];fontFamily=Times New Roman;" vertex="1" connectable="0" parent="q68G4hHnIbB-3GI58oIF-51">
          <mxGeometry x="0.1182" relative="1" as="geometry">
            <mxPoint x="-2" y="-3" as="offset" />
          </mxGeometry>
        </mxCell>
        <mxCell id="q68G4hHnIbB-3GI58oIF-53" value="&lt;font style=&quot;font-size: 20px;&quot;&gt;CSH &amp;lt; 1&lt;/font&gt;" style="rounded=1;whiteSpace=wrap;html=1;fillColor=#f5f5f5;fontColor=#333333;strokeColor=#000000;fontFamily=Times New Roman;" vertex="1" parent="1">
          <mxGeometry x="-241" y="111" width="86" height="45" as="geometry" />
        </mxCell>
        <mxCell id="q68G4hHnIbB-3GI58oIF-54" value="&lt;font&gt;&lt;span style=&quot;font-size: 20px;&quot;&gt;M&lt;/span&gt;&lt;/font&gt;" style="ellipse;whiteSpace=wrap;html=1;fillColor=#d5e8d4;strokeColor=#000000;fontFamily=Times New Roman;" vertex="1" parent="1">
          <mxGeometry x="-179" y="199" width="73" height="51" as="geometry" />
        </mxCell>
        <mxCell id="q68G4hHnIbB-3GI58oIF-55" value="&lt;font style=&quot;font-size: 20px;&quot;&gt;B&lt;/font&gt;" style="ellipse;whiteSpace=wrap;html=1;fillColor=#d5e8d4;strokeColor=#000000;fontFamily=Times New Roman;" vertex="1" parent="1">
          <mxGeometry x="-290" y="199" width="73" height="51" as="geometry" />
        </mxCell>
        <mxCell id="q68G4hHnIbB-3GI58oIF-56" value="&lt;font&gt;&lt;span style=&quot;font-size: 20px;&quot;&gt;M&lt;/span&gt;&lt;/font&gt;" style="ellipse;whiteSpace=wrap;html=1;fillColor=#d5e8d4;strokeColor=#000000;fontFamily=Times New Roman;" vertex="1" parent="1">
          <mxGeometry x="-109" y="108" width="73" height="51" as="geometry" />
        </mxCell>
        <mxCell id="q68G4hHnIbB-3GI58oIF-57" value="" style="shape=flexArrow;endArrow=classic;html=1;rounded=0;fontFamily=Times New Roman;" edge="1" parent="1">
          <mxGeometry width="50" height="50" relative="1" as="geometry">
            <mxPoint x="7" y="132.91000000000003" as="sourcePoint" />
            <mxPoint x="155" y="132.91000000000003" as="targetPoint" />
          </mxGeometry>
        </mxCell>
        <mxCell id="q68G4hHnIbB-3GI58oIF-58" value="&lt;font style=&quot;font-size: 20px;&quot;&gt;filled&lt;/font&gt;" style="text;html=1;align=center;verticalAlign=middle;whiteSpace=wrap;rounded=0;fontFamily=Times New Roman;" vertex="1" parent="1">
          <mxGeometry x="47" y="88" width="60" height="30" as="geometry" />
        </mxCell>
      </root>
    </mxGraphModel>
  </diagram>
  <diagram id="H3VpJR3FXWKtDBTmx-q7" name="第 4 页">
    <mxGraphModel dx="1531" dy="661" grid="0" gridSize="10" guides="1" tooltips="1" connect="1" arrows="1" fold="1" page="0" pageScale="1" pageWidth="2339" pageHeight="3300" math="1" shadow="0">
      <root>
        <mxCell id="0" />
        <mxCell id="1" parent="0" />
        <mxCell id="0bv859wMbCpoaPpp6TpE-1" style="rounded=0;orthogonalLoop=1;jettySize=auto;html=1;exitX=0.5;exitY=1;exitDx=0;exitDy=0;endArrow=none;endFill=0;entryX=0.5;entryY=0;entryDx=0;entryDy=0;fontFamily=Times New Roman;" edge="1" parent="1" source="0bv859wMbCpoaPpp6TpE-5" target="0bv859wMbCpoaPpp6TpE-6">
          <mxGeometry relative="1" as="geometry" />
        </mxCell>
        <mxCell id="0bv859wMbCpoaPpp6TpE-2" value="&lt;font style=&quot;font-size: 20px;&quot;&gt;Y&lt;/font&gt;" style="edgeLabel;html=1;align=center;verticalAlign=middle;resizable=0;points=[];fontFamily=Times New Roman;" vertex="1" connectable="0" parent="0bv859wMbCpoaPpp6TpE-1">
          <mxGeometry x="0.0758" y="-2" relative="1" as="geometry">
            <mxPoint x="1" as="offset" />
          </mxGeometry>
        </mxCell>
        <mxCell id="0bv859wMbCpoaPpp6TpE-3" style="rounded=0;orthogonalLoop=1;jettySize=auto;html=1;exitX=0.5;exitY=1;exitDx=0;exitDy=0;endArrow=none;endFill=0;entryX=0.5;entryY=0;entryDx=0;entryDy=0;fontFamily=Times New Roman;" edge="1" parent="1" source="0bv859wMbCpoaPpp6TpE-5" target="0bv859wMbCpoaPpp6TpE-11">
          <mxGeometry relative="1" as="geometry">
            <mxPoint x="388" y="113" as="targetPoint" />
          </mxGeometry>
        </mxCell>
        <mxCell id="0bv859wMbCpoaPpp6TpE-4" value="&lt;font style=&quot;font-size: 20px;&quot;&gt;N&lt;/font&gt;" style="edgeLabel;html=1;align=center;verticalAlign=middle;resizable=0;points=[];fontFamily=Times New Roman;" vertex="1" connectable="0" parent="0bv859wMbCpoaPpp6TpE-3">
          <mxGeometry x="0.0874" y="2" relative="1" as="geometry">
            <mxPoint as="offset" />
          </mxGeometry>
        </mxCell>
        <mxCell id="0bv859wMbCpoaPpp6TpE-5" value="&lt;font style=&quot;font-size: 20px;&quot;&gt;CSI &amp;lt; 2&lt;/font&gt;" style="rounded=1;whiteSpace=wrap;html=1;fillColor=#f5f5f5;fontColor=#333333;strokeColor=#000000;fontFamily=Times New Roman;" vertex="1" parent="1">
          <mxGeometry x="306" y="28" width="86" height="45" as="geometry" />
        </mxCell>
        <mxCell id="0bv859wMbCpoaPpp6TpE-6" value="&lt;font style=&quot;font-size: 20px;&quot;&gt;B&lt;/font&gt;" style="ellipse;whiteSpace=wrap;html=1;fillColor=#d5e8d4;strokeColor=#000000;fontFamily=Times New Roman;" vertex="1" parent="1">
          <mxGeometry x="247" y="119" width="73" height="51" as="geometry" />
        </mxCell>
        <mxCell id="0bv859wMbCpoaPpp6TpE-7" style="rounded=0;orthogonalLoop=1;jettySize=auto;html=1;exitX=0.5;exitY=1;exitDx=0;exitDy=0;endArrow=none;endFill=0;entryX=0.5;entryY=0;entryDx=0;entryDy=0;fontFamily=Times New Roman;" edge="1" parent="1" source="0bv859wMbCpoaPpp6TpE-11" target="0bv859wMbCpoaPpp6TpE-12">
          <mxGeometry relative="1" as="geometry" />
        </mxCell>
        <mxCell id="0bv859wMbCpoaPpp6TpE-8" value="&lt;font style=&quot;font-size: 20px;&quot;&gt;Y&lt;/font&gt;" style="edgeLabel;html=1;align=center;verticalAlign=middle;resizable=0;points=[];fontFamily=Times New Roman;" vertex="1" connectable="0" parent="0bv859wMbCpoaPpp6TpE-7">
          <mxGeometry x="-0.0929" y="1" relative="1" as="geometry">
            <mxPoint x="-2" y="1" as="offset" />
          </mxGeometry>
        </mxCell>
        <mxCell id="0bv859wMbCpoaPpp6TpE-9" style="rounded=0;orthogonalLoop=1;jettySize=auto;html=1;exitX=0.5;exitY=1;exitDx=0;exitDy=0;endArrow=none;endFill=0;entryX=0.5;entryY=0;entryDx=0;entryDy=0;fontFamily=Times New Roman;" edge="1" parent="1" source="0bv859wMbCpoaPpp6TpE-11" target="0bv859wMbCpoaPpp6TpE-13">
          <mxGeometry relative="1" as="geometry" />
        </mxCell>
        <mxCell id="0bv859wMbCpoaPpp6TpE-10" value="&lt;font style=&quot;font-size: 20px;&quot;&gt;N&lt;/font&gt;" style="edgeLabel;html=1;align=center;verticalAlign=middle;resizable=0;points=[];fontFamily=Times New Roman;" vertex="1" connectable="0" parent="0bv859wMbCpoaPpp6TpE-9">
          <mxGeometry x="0.1182" relative="1" as="geometry">
            <mxPoint x="-2" y="-3" as="offset" />
          </mxGeometry>
        </mxCell>
        <mxCell id="0bv859wMbCpoaPpp6TpE-11" value="&lt;font style=&quot;font-size: 20px;&quot;&gt;CSH &amp;lt; 2&lt;/font&gt;" style="rounded=1;whiteSpace=wrap;html=1;fillColor=#f5f5f5;fontColor=#333333;strokeColor=#000000;fontFamily=Times New Roman;" vertex="1" parent="1">
          <mxGeometry x="383" y="119" width="86" height="45" as="geometry" />
        </mxCell>
        <mxCell id="0bv859wMbCpoaPpp6TpE-12" value="&lt;font style=&quot;font-size: 20px;&quot;&gt;SE &amp;lt; 3&lt;/font&gt;" style="rounded=1;whiteSpace=wrap;html=1;fillColor=#f5f5f5;fontColor=#333333;strokeColor=#000000;fontFamily=Times New Roman;" vertex="1" parent="1">
          <mxGeometry x="327" y="207" width="86" height="45" as="geometry" />
        </mxCell>
        <mxCell id="0bv859wMbCpoaPpp6TpE-13" value="&lt;font&gt;&lt;span style=&quot;font-size: 20px;&quot;&gt;M&lt;/span&gt;&lt;/font&gt;" style="ellipse;whiteSpace=wrap;html=1;fillColor=#d5e8d4;strokeColor=#000000;fontFamily=Times New Roman;" vertex="1" parent="1">
          <mxGeometry x="445" y="207" width="73" height="51" as="geometry" />
        </mxCell>
        <mxCell id="0bv859wMbCpoaPpp6TpE-14" style="rounded=0;orthogonalLoop=1;jettySize=auto;html=1;exitX=0.5;exitY=1;exitDx=0;exitDy=0;endArrow=none;endFill=0;entryX=0.5;entryY=0;entryDx=0;entryDy=0;fontFamily=Times New Roman;" edge="1" parent="1" source="0bv859wMbCpoaPpp6TpE-12" target="0bv859wMbCpoaPpp6TpE-16">
          <mxGeometry relative="1" as="geometry">
            <mxPoint x="347" y="252" as="sourcePoint" />
          </mxGeometry>
        </mxCell>
        <mxCell id="0bv859wMbCpoaPpp6TpE-15" value="&lt;font style=&quot;font-size: 20px;&quot;&gt;Y&lt;/font&gt;" style="edgeLabel;html=1;align=center;verticalAlign=middle;resizable=0;points=[];fontFamily=Times New Roman;" vertex="1" connectable="0" parent="0bv859wMbCpoaPpp6TpE-14">
          <mxGeometry x="0.0758" y="-2" relative="1" as="geometry">
            <mxPoint x="1" as="offset" />
          </mxGeometry>
        </mxCell>
        <mxCell id="0bv859wMbCpoaPpp6TpE-16" value="&lt;font style=&quot;font-size: 20px;&quot;&gt;B&lt;/font&gt;" style="ellipse;whiteSpace=wrap;html=1;fillColor=#d5e8d4;strokeColor=#000000;fontFamily=Times New Roman;" vertex="1" parent="1">
          <mxGeometry x="277" y="295" width="73" height="51" as="geometry" />
        </mxCell>
        <mxCell id="0bv859wMbCpoaPpp6TpE-17" style="rounded=0;orthogonalLoop=1;jettySize=auto;html=1;exitX=0.5;exitY=1;exitDx=0;exitDy=0;endArrow=none;endFill=0;entryX=0.5;entryY=0;entryDx=0;entryDy=0;fontFamily=Times New Roman;" edge="1" parent="1" source="0bv859wMbCpoaPpp6TpE-12" target="0bv859wMbCpoaPpp6TpE-19">
          <mxGeometry relative="1" as="geometry">
            <mxPoint x="350" y="252" as="sourcePoint" />
          </mxGeometry>
        </mxCell>
        <mxCell id="0bv859wMbCpoaPpp6TpE-18" value="&lt;font style=&quot;font-size: 20px;&quot;&gt;N&lt;/font&gt;" style="edgeLabel;html=1;align=center;verticalAlign=middle;resizable=0;points=[];fontFamily=Times New Roman;" vertex="1" connectable="0" parent="0bv859wMbCpoaPpp6TpE-17">
          <mxGeometry x="0.1182" relative="1" as="geometry">
            <mxPoint x="-2" y="-3" as="offset" />
          </mxGeometry>
        </mxCell>
        <mxCell id="0bv859wMbCpoaPpp6TpE-19" value="&lt;font&gt;&lt;span style=&quot;font-size: 20px;&quot;&gt;M&lt;/span&gt;&lt;/font&gt;" style="ellipse;whiteSpace=wrap;html=1;fillColor=#d5e8d4;strokeColor=#000000;fontFamily=Times New Roman;" vertex="1" parent="1">
          <mxGeometry x="392" y="295" width="73" height="51" as="geometry" />
        </mxCell>
        <mxCell id="0bv859wMbCpoaPpp6TpE-20" style="rounded=0;orthogonalLoop=1;jettySize=auto;html=1;exitX=0.5;exitY=1;exitDx=0;exitDy=0;endArrow=none;endFill=0;entryX=0.5;entryY=0;entryDx=0;entryDy=0;fontFamily=Times New Roman;" edge="1" parent="1" source="0bv859wMbCpoaPpp6TpE-24" target="0bv859wMbCpoaPpp6TpE-25">
          <mxGeometry relative="1" as="geometry" />
        </mxCell>
        <mxCell id="0bv859wMbCpoaPpp6TpE-21" value="&lt;font style=&quot;font-size: 20px;&quot;&gt;Y&lt;/font&gt;" style="edgeLabel;html=1;align=center;verticalAlign=middle;resizable=0;points=[];fontFamily=Times New Roman;" vertex="1" connectable="0" parent="0bv859wMbCpoaPpp6TpE-20">
          <mxGeometry x="0.0758" y="-2" relative="1" as="geometry">
            <mxPoint x="1" as="offset" />
          </mxGeometry>
        </mxCell>
        <mxCell id="0bv859wMbCpoaPpp6TpE-22" style="rounded=0;orthogonalLoop=1;jettySize=auto;html=1;exitX=0.5;exitY=1;exitDx=0;exitDy=0;endArrow=none;endFill=0;entryX=0.5;entryY=0;entryDx=0;entryDy=0;fontFamily=Times New Roman;" edge="1" parent="1" source="0bv859wMbCpoaPpp6TpE-24" target="0bv859wMbCpoaPpp6TpE-30">
          <mxGeometry relative="1" as="geometry">
            <mxPoint x="17" y="227" as="targetPoint" />
          </mxGeometry>
        </mxCell>
        <mxCell id="0bv859wMbCpoaPpp6TpE-23" value="&lt;font style=&quot;font-size: 20px;&quot;&gt;N&lt;/font&gt;" style="edgeLabel;html=1;align=center;verticalAlign=middle;resizable=0;points=[];fontFamily=Times New Roman;" vertex="1" connectable="0" parent="0bv859wMbCpoaPpp6TpE-22">
          <mxGeometry x="0.0874" y="2" relative="1" as="geometry">
            <mxPoint as="offset" />
          </mxGeometry>
        </mxCell>
        <mxCell id="0bv859wMbCpoaPpp6TpE-24" value="&lt;font style=&quot;font-size: 20px;&quot;&gt;CSI &amp;lt; 2&lt;/font&gt;" style="rounded=1;whiteSpace=wrap;html=1;fillColor=#f5f5f5;fontColor=#333333;strokeColor=#000000;fontFamily=Times New Roman;" vertex="1" parent="1">
          <mxGeometry x="-65" y="142" width="86" height="45" as="geometry" />
        </mxCell>
        <mxCell id="0bv859wMbCpoaPpp6TpE-25" value="&lt;font style=&quot;font-size: 20px;&quot;&gt;B&lt;/font&gt;" style="ellipse;whiteSpace=wrap;html=1;fillColor=#d5e8d4;strokeColor=#000000;fontFamily=Times New Roman;" vertex="1" parent="1">
          <mxGeometry x="-124" y="233" width="73" height="51" as="geometry" />
        </mxCell>
        <mxCell id="0bv859wMbCpoaPpp6TpE-26" style="rounded=0;orthogonalLoop=1;jettySize=auto;html=1;exitX=0.5;exitY=1;exitDx=0;exitDy=0;endArrow=none;endFill=0;entryX=0.5;entryY=0;entryDx=0;entryDy=0;fontFamily=Times New Roman;" edge="1" parent="1" source="0bv859wMbCpoaPpp6TpE-30" target="0bv859wMbCpoaPpp6TpE-32">
          <mxGeometry relative="1" as="geometry">
            <mxPoint x="-1" y="321" as="targetPoint" />
          </mxGeometry>
        </mxCell>
        <mxCell id="0bv859wMbCpoaPpp6TpE-27" value="&lt;font style=&quot;font-size: 20px;&quot;&gt;Y&lt;/font&gt;" style="edgeLabel;html=1;align=center;verticalAlign=middle;resizable=0;points=[];fontFamily=Times New Roman;" vertex="1" connectable="0" parent="0bv859wMbCpoaPpp6TpE-26">
          <mxGeometry x="-0.0929" y="1" relative="1" as="geometry">
            <mxPoint x="-2" y="1" as="offset" />
          </mxGeometry>
        </mxCell>
        <mxCell id="0bv859wMbCpoaPpp6TpE-28" style="rounded=0;orthogonalLoop=1;jettySize=auto;html=1;exitX=0.5;exitY=1;exitDx=0;exitDy=0;endArrow=none;endFill=0;entryX=0.5;entryY=0;entryDx=0;entryDy=0;fontFamily=Times New Roman;" edge="1" parent="1" source="0bv859wMbCpoaPpp6TpE-30" target="0bv859wMbCpoaPpp6TpE-31">
          <mxGeometry relative="1" as="geometry" />
        </mxCell>
        <mxCell id="0bv859wMbCpoaPpp6TpE-29" value="&lt;font style=&quot;font-size: 20px;&quot;&gt;N&lt;/font&gt;" style="edgeLabel;html=1;align=center;verticalAlign=middle;resizable=0;points=[];fontFamily=Times New Roman;" vertex="1" connectable="0" parent="0bv859wMbCpoaPpp6TpE-28">
          <mxGeometry x="0.1182" relative="1" as="geometry">
            <mxPoint x="-2" y="-3" as="offset" />
          </mxGeometry>
        </mxCell>
        <mxCell id="0bv859wMbCpoaPpp6TpE-30" value="&lt;font style=&quot;font-size: 20px;&quot;&gt;CSH &amp;lt; 1&lt;/font&gt;" style="rounded=1;whiteSpace=wrap;html=1;fillColor=#f5f5f5;fontColor=#333333;strokeColor=#000000;fontFamily=Times New Roman;" vertex="1" parent="1">
          <mxGeometry x="12" y="233" width="86" height="45" as="geometry" />
        </mxCell>
        <mxCell id="0bv859wMbCpoaPpp6TpE-31" value="&lt;font&gt;&lt;span style=&quot;font-size: 20px;&quot;&gt;M&lt;/span&gt;&lt;/font&gt;" style="ellipse;whiteSpace=wrap;html=1;fillColor=#d5e8d4;strokeColor=#000000;fontFamily=Times New Roman;" vertex="1" parent="1">
          <mxGeometry x="74" y="321" width="73" height="51" as="geometry" />
        </mxCell>
        <mxCell id="0bv859wMbCpoaPpp6TpE-32" value="&lt;font style=&quot;font-size: 20px;&quot;&gt;B&lt;/font&gt;" style="ellipse;whiteSpace=wrap;html=1;fillColor=#d5e8d4;strokeColor=#000000;fontFamily=Times New Roman;" vertex="1" parent="1">
          <mxGeometry x="-37" y="321" width="73" height="51" as="geometry" />
        </mxCell>
        <mxCell id="0bv859wMbCpoaPpp6TpE-33" value="&lt;font style=&quot;font-size: 20px;&quot;&gt;B&lt;/font&gt;" style="ellipse;whiteSpace=wrap;html=1;fillColor=#d5e8d4;strokeColor=#000000;fontFamily=Times New Roman;" vertex="1" parent="1">
          <mxGeometry x="-49" y="26" width="73" height="51" as="geometry" />
        </mxCell>
        <mxCell id="0bv859wMbCpoaPpp6TpE-34" value="&lt;font style=&quot;font-size: 20px;&quot;&gt;`T_1`&lt;/font&gt;" style="text;html=1;align=center;verticalAlign=middle;whiteSpace=wrap;rounded=0;labelBorderColor=none;fontFamily=Times New Roman;" vertex="1" parent="1">
          <mxGeometry x="-105" y="12" width="45" height="30" as="geometry" />
        </mxCell>
        <mxCell id="0bv859wMbCpoaPpp6TpE-35" value="&lt;font style=&quot;font-size: 20px;&quot;&gt;`T_2`&lt;/font&gt;" style="text;html=1;align=center;verticalAlign=middle;whiteSpace=wrap;rounded=0;labelBorderColor=none;fontFamily=Times New Roman;" vertex="1" parent="1">
          <mxGeometry x="218" y="3" width="45" height="30" as="geometry" />
        </mxCell>
        <mxCell id="0bv859wMbCpoaPpp6TpE-36" value="&lt;font style=&quot;font-size: 20px;&quot;&gt;`T_1^&#39;`&lt;/font&gt;" style="text;html=1;align=center;verticalAlign=middle;whiteSpace=wrap;rounded=0;labelBorderColor=none;fontFamily=Times New Roman;" vertex="1" parent="1">
          <mxGeometry x="-153" y="121" width="45" height="30" as="geometry" />
        </mxCell>
        <mxCell id="0bv859wMbCpoaPpp6TpE-37" value="" style="shape=flexArrow;endArrow=classic;startArrow=classic;html=1;rounded=0;fontFamily=Times New Roman;" edge="1" parent="1">
          <mxGeometry width="100" height="100" relative="1" as="geometry">
            <mxPoint x="39" y="57" as="sourcePoint" />
            <mxPoint x="247" y="114" as="targetPoint" />
          </mxGeometry>
        </mxCell>
        <mxCell id="0bv859wMbCpoaPpp6TpE-38" value="&lt;font style=&quot;font-size: 20px;&quot;&gt;TED is 3&lt;/font&gt;" style="text;html=1;align=center;verticalAlign=middle;whiteSpace=wrap;rounded=0;rotation=15;fontFamily=Times New Roman;" vertex="1" parent="1">
          <mxGeometry x="85" y="42" width="145" height="30" as="geometry" />
        </mxCell>
        <mxCell id="0bv859wMbCpoaPpp6TpE-39" value="&lt;font style=&quot;font-size: 20px;&quot;&gt;TED is 2&lt;/font&gt;" style="text;html=1;align=center;verticalAlign=middle;whiteSpace=wrap;rounded=0;rotation=-15;fontFamily=Times New Roman;" vertex="1" parent="1">
          <mxGeometry x="137" y="193" width="145" height="30" as="geometry" />
        </mxCell>
        <mxCell id="0bv859wMbCpoaPpp6TpE-40" value="" style="shape=flexArrow;endArrow=classic;startArrow=classic;html=1;rounded=0;fontFamily=Times New Roman;" edge="1" parent="1">
          <mxGeometry width="100" height="100" relative="1" as="geometry">
            <mxPoint x="115" y="260.5" as="sourcePoint" />
            <mxPoint x="320" y="204.5" as="targetPoint" />
          </mxGeometry>
        </mxCell>
      </root>
    </mxGraphModel>
  </diagram>
</mxfile>
